ISO-10303-21;
HEADER;
/* Generated by software containing ST-Developer
 * from STEP Tools, Inc. (www.steptools.com) 
 */
/* OPTION: using custom renumber hook */

FILE_DESCRIPTION(
/* description */ ('STEP AP242 Edition 2',
'CAx-IF Rec.Pracs.---Representation and Presentation of Product Manufa
cturing Information (PMI)---4.0---2014-10-13',
'CAx-IF Rec.Pracs.---3D Tessellated Geometry---0.4---2014-09-14','2;1',
'CAx-IF Rec.Pracs.---User Defined Attributes---1.5---2016-08-15'),
/* implementation_level */ '2;1');

FILE_NAME(
/* name */ '695a8976b345b5e24a320cf4',
/* time_stamp */ '2026-01-04T15:38:31Z',
/* author */ (''),
/* organization */ (''),
/* preprocessor_version */ 'ST-DEVELOPER v20',
/* originating_system */ 'ONSHAPE BY PTC INC, 1.208',
/* authorisation */ '  ');

FILE_SCHEMA (('AP242_MANAGED_MODEL_BASED_3D_ENGINEERING_MIM_LF { 1 0 10303 442 3 1 4 }'));
ENDSEC;

DATA;
#10=SHAPE_REPRESENTATION_RELATIONSHIP('','',#673,#11);
#11=ADVANCED_BREP_SHAPE_REPRESENTATION('',(#671),#1484);
#12=SPHERICAL_SURFACE('',#722,0.002);
#13=SPHERICAL_SURFACE('',#760,0.002);
#14=(
BOUNDED_SURFACE()
B_SPLINE_SURFACE(3,2,((#1171,#1172,#1173),(#1174,#1175,#1176),(#1177,#1178,
#1179),(#1180,#1181,#1182),(#1183,#1184,#1185),(#1186,#1187,#1188),(#1189,
#1190,#1191),(#1192,#1193,#1194),(#1195,#1196,#1197),(#1198,#1199,#1200),
(#1201,#1202,#1203)),.UNSPECIFIED.,.F.,.F.,.F.)
B_SPLINE_SURFACE_WITH_KNOTS((4,1,1,1,1,1,1,1,4),(3,3),(0.0123627196981275,
0.0131770551503088,0.0139913906024901,0.0148057260546713,0.0156200615068526,
0.0164343969590339,0.0172487324112152,0.0180630678633965,0.0188774033155778),
(0.,1.),.UNSPECIFIED.)
GEOMETRIC_REPRESENTATION_ITEM()
RATIONAL_B_SPLINE_SURFACE(((1.,0.707106781186548,1.),(1.,0.707106779606903,
1.),(1.,0.73912261778279,1.),(1.,0.82948186255836,1.),(1.,0.906466058751949,
1.),(1.,0.940962149030581,1.),(1.,0.905596404451056,1.),(1.,0.828569297221039,
1.),(1.,0.739169071663902,1.),(1.,0.707106778276865,1.),(1.,0.707106781186547,
1.)))
REPRESENTATION_ITEM('')
SURFACE()
);
#15=(
BOUNDED_SURFACE()
B_SPLINE_SURFACE(3,2,((#1206,#1207,#1208),(#1209,#1210,#1211),(#1212,#1213,
#1214),(#1215,#1216,#1217),(#1218,#1219,#1220),(#1221,#1222,#1223),(#1224,
#1225,#1226),(#1227,#1228,#1229),(#1230,#1231,#1232),(#1233,#1234,#1235),
(#1236,#1237,#1238)),.UNSPECIFIED.,.F.,.F.,.F.)
B_SPLINE_SURFACE_WITH_KNOTS((4,1,1,1,1,1,1,1,4),(3,3),(0.00543807096670108,
0.00623088679611278,0.00702370262552448,0.00781651845493618,0.00860933428434789,
0.00940215011375959,0.0101949659431713,0.010987781772583,0.0117805976019947),
(0.,1.),.UNSPECIFIED.)
GEOMETRIC_REPRESENTATION_ITEM()
RATIONAL_B_SPLINE_SURFACE(((1.,0.707106781186548,1.),(1.,0.707106780304222,
1.),(1.,0.688689466433288,1.),(1.,0.619904572973027,1.),(1.,0.540939638875264,
1.),(1.,0.501263848752738,1.),(1.,0.540979514698274,1.),(1.,0.620043773189363,
1.),(1.,0.688644891935689,1.),(1.,0.707106779308952,1.),(1.,0.707106781186548,
1.)))
REPRESENTATION_ITEM('')
SURFACE()
);
#16=(
BOUNDED_SURFACE()
B_SPLINE_SURFACE(3,2,((#1241,#1242,#1243),(#1244,#1245,#1246),(#1247,#1248,
#1249),(#1250,#1251,#1252),(#1253,#1254,#1255),(#1256,#1257,#1258),(#1259,
#1260,#1261),(#1262,#1263,#1264),(#1265,#1266,#1267),(#1268,#1269,#1270),
(#1271,#1272,#1273)),.UNSPECIFIED.,.F.,.F.,.F.)
B_SPLINE_SURFACE_WITH_KNOTS((4,1,1,1,1,1,1,1,4),(3,3),(0.00319965702654453,
0.00399302774137281,0.00478639845620108,0.00557976917102936,0.00637313988585764,
0.00716651060068592,0.0079598813155142,0.00875325203034247,0.00954662274517075),
(0.,1.),.UNSPECIFIED.)
GEOMETRIC_REPRESENTATION_ITEM()
RATIONAL_B_SPLINE_SURFACE(((1.,0.707106781186548,1.),(1.,0.707106783008227,
1.),(1.,0.688583004560716,1.),(1.,0.619761234250959,1.),(1.,0.540961634693925,
1.),(1.,0.501276900393038,1.),(1.,0.540905982033298,1.),(1.,0.619998730756546,
1.),(1.,0.688699034387467,1.),(1.,0.707106782392317,1.),(1.,0.707106781186548,
1.)))
REPRESENTATION_ITEM('')
SURFACE()
);
#17=(
BOUNDED_SURFACE()
B_SPLINE_SURFACE(3,2,((#1276,#1277,#1278),(#1279,#1280,#1281),(#1282,#1283,
#1284),(#1285,#1286,#1287),(#1288,#1289,#1290),(#1291,#1292,#1293),(#1294,
#1295,#1296),(#1297,#1298,#1299),(#1300,#1301,#1302),(#1303,#1304,#1305),
(#1306,#1307,#1308)),.UNSPECIFIED.,.F.,.F.,.F.)
B_SPLINE_SURFACE_WITH_KNOTS((4,1,1,1,1,1,1,1,4),(3,3),(0.00355862086237801,
0.00437148056539689,0.00518434026841578,0.00599719997143466,0.00681005967445355,
0.00762291937747243,0.00843577908049132,0.0092486387835102,0.0100614984865291),
(0.,1.),.UNSPECIFIED.)
GEOMETRIC_REPRESENTATION_ITEM()
RATIONAL_B_SPLINE_SURFACE(((1.,0.707106781186548,1.),(1.,0.707106778809491,
1.),(1.,0.738990347620181,1.),(1.,0.829134574543723,1.),(1.,0.905840460098561,
1.),(1.,0.94102840385542,1.),(1.,0.905968019945162,1.),(1.,0.828835655490791,
1.),(1.,0.738806037878618,1.),(1.,0.707106778136829,1.),(1.,0.707106781186548,
1.)))
REPRESENTATION_ITEM('')
SURFACE()
);
#18=(
BOUNDED_SURFACE()
B_SPLINE_SURFACE(3,2,((#1408,#1409,#1410),(#1411,#1412,#1413),(#1414,#1415,
#1416),(#1417,#1418,#1419),(#1420,#1421,#1422),(#1423,#1424,#1425),(#1426,
#1427,#1428),(#1429,#1430,#1431),(#1432,#1433,#1434),(#1435,#1436,#1437),
(#1438,#1439,#1440)),.UNSPECIFIED.,.F.,.F.,.F.)
B_SPLINE_SURFACE_WITH_KNOTS((4,1,1,1,1,1,1,1,4),(3,3),(0.00319965702654453,
0.00399302774137273,0.00478639845620092,0.00557976917102912,0.00637313988585732,
0.00716651060068552,0.00795988131551372,0.00875325203034192,0.00954662274517012),
(0.,1.),.UNSPECIFIED.)
GEOMETRIC_REPRESENTATION_ITEM()
RATIONAL_B_SPLINE_SURFACE(((1.,0.707106781186548,1.),(1.,0.707106783008227,
1.),(1.,0.68858300456072,1.),(1.,0.619761234250975,1.),(1.,0.540961634693947,
1.),(1.,0.501276900393041,1.),(1.,0.540905982033262,1.),(1.,0.6199987307565,
1.),(1.,0.688699034387416,1.),(1.,0.707106782392332,1.),(1.,0.707106781186548,
1.)))
REPRESENTATION_ITEM('')
SURFACE()
);
#19=(
BOUNDED_SURFACE()
B_SPLINE_SURFACE(3,2,((#1443,#1444,#1445),(#1446,#1447,#1448),(#1449,#1450,
#1451),(#1452,#1453,#1454),(#1455,#1456,#1457),(#1458,#1459,#1460),(#1461,
#1462,#1463),(#1464,#1465,#1466),(#1467,#1468,#1469),(#1470,#1471,#1472),
(#1473,#1474,#1475)),.UNSPECIFIED.,.F.,.F.,.F.)
B_SPLINE_SURFACE_WITH_KNOTS((4,1,1,1,1,1,1,1,4),(3,3),(0.003558620862378,
0.00437148056539467,0.00518434026841133,0.00599719997142799,0.00681005967444465,
0.00762291937746132,0.00843577908047798,0.00924863878349464,0.0100614984865113),
(0.,1.),.UNSPECIFIED.)
GEOMETRIC_REPRESENTATION_ITEM()
RATIONAL_B_SPLINE_SURFACE(((1.,0.707106781186548,1.),(1.,0.70710677880937,
1.),(1.,0.73899034762005,1.),(1.,0.829134574543212,1.),(1.,0.905840460098015,
1.),(1.,0.941028403855359,1.),(1.,0.905968019945957,1.),(1.,0.828835655492289,
1.),(1.,0.738806037879991,1.),(1.,0.707106778137989,1.),(1.,0.707106781186548,
1.)))
REPRESENTATION_ITEM('')
SURFACE()
);
#20=TOROIDAL_SURFACE('',#691,0.0035,0.002);
#21=TOROIDAL_SURFACE('',#696,0.006,0.001);
#22=TOROIDAL_SURFACE('',#700,0.006,0.001);
#23=TOROIDAL_SURFACE('',#704,0.006,0.001);
#24=TOROIDAL_SURFACE('',#707,0.006,0.001);
#25=TOROIDAL_SURFACE('',#711,0.006,0.001);
#26=TOROIDAL_SURFACE('',#734,0.0035,0.002);
#27=TOROIDAL_SURFACE('',#738,0.006,0.001);
#28=TOROIDAL_SURFACE('',#742,0.006,0.001);
#29=TOROIDAL_SURFACE('',#746,0.006,0.001);
#30=TOROIDAL_SURFACE('',#749,0.006,0.001);
#31=TOROIDAL_SURFACE('',#753,0.006,0.001);
#32=PLANE('',#684);
#33=PLANE('',#688);
#34=PLANE('',#727);
#35=PLANE('',#731);
#36=PLANE('',#762);
#37=PLANE('',#763);
#38=PLANE('',#764);
#39=B_SPLINE_CURVE_WITH_KNOTS('',3,(#986,#987,#988,#989,#990,#991,#992,
#993,#994,#995,#996),.UNSPECIFIED.,.F.,.F.,(4,1,1,1,1,1,1,1,4),(0.00282734227418097,
0.00353282783621571,0.00423831339825045,0.0049437989602852,0.00564928452231994,
0.00635477008435468,0.00706025564638942,0.00776574120842416,0.00847122677045891),
 .UNSPECIFIED.);
#40=B_SPLINE_CURVE_WITH_KNOTS('',3,(#1000,#1001,#1002,#1003,#1004,#1005,
#1006,#1007,#1008,#1009),.UNSPECIFIED.,.F.,.F.,(4,1,1,1,1,1,1,4),(0.00845116776140237,
0.00915434485919307,0.00985752195698377,0.0112638761525652,0.0119670532503559,
0.0126702303481466,0.0133734074459373,0.014076584543728),.UNSPECIFIED.);
#41=B_SPLINE_CURVE_WITH_KNOTS('',3,(#1013,#1014,#1015,#1016,#1017,#1018,
#1019,#1020,#1021,#1022,#1023),.UNSPECIFIED.,.F.,.F.,(4,1,1,1,1,1,1,1,4),
(0.00282734227418097,0.00353282783621801,0.00423831339825504,0.00494379896029208,
0.00564928452232911,0.00635477008436614,0.00706025564640318,0.00776574120844021,
0.00847122677047725),.UNSPECIFIED.);
#42=B_SPLINE_CURVE_WITH_KNOTS('',3,(#1036,#1037,#1038,#1039,#1040,#1041,
#1042,#1043,#1044),.UNSPECIFIED.,.F.,.F.,(4,1,1,1,1,1,4),(0.00346585108114735,
0.00519668620840585,0.00606210377203509,0.00692752133566434,0.00779293889929359,
0.00865835646292284,0.0103891915901813),.UNSPECIFIED.);
#43=B_SPLINE_CURVE_WITH_KNOTS('',3,(#1057,#1058,#1059,#1060,#1061,#1062,
#1063,#1064,#1065),.UNSPECIFIED.,.F.,.F.,(4,1,1,1,1,1,4),(0.00348427394081791,
0.00522764902725979,0.00609933657048072,0.00697102411370166,0.0078427116569226,
0.00871439920014354,0.0104577742865854),.UNSPECIFIED.);
#44=B_SPLINE_CURVE_WITH_KNOTS('',3,(#1094,#1095,#1096,#1097,#1098,#1099,
#1100,#1101,#1102),.UNSPECIFIED.,.F.,.F.,(4,1,1,1,1,1,4),(0.00618889423074489,
0.0072218588184762,0.00773834111234185,0.0082548234062075,0.00877130570007315,
0.0092877879939388,0.0103207525816701),.UNSPECIFIED.);
#45=B_SPLINE_CURVE_WITH_KNOTS('',3,(#1107,#1108,#1109,#1110,#1111,#1112,
#1113,#1114,#1115,#1116,#1117),.UNSPECIFIED.,.F.,.F.,(4,1,1,1,1,1,1,1,4),
(0.00219388411242245,0.00274290477362132,0.00329192543482019,0.00384094609601905,
0.00438996675721792,0.00493898741841679,0.00548800807961565,0.00603702874081452,
0.00658604940201339),.UNSPECIFIED.);
#46=B_SPLINE_CURVE_WITH_KNOTS('',3,(#1121,#1122,#1123,#1124,#1125,#1126,
#1127,#1128,#1129),.UNSPECIFIED.,.F.,.F.,(4,1,1,1,1,1,4),(0.00206640380508722,
0.00309904876878912,0.00361537125064007,0.00413169373249102,0.00464801621434197,
0.00516433869619292,0.00619698365989482),.UNSPECIFIED.);
#47=B_SPLINE_CURVE_WITH_KNOTS('',3,(#1134,#1135,#1136,#1137,#1138,#1139,
#1140,#1141,#1142,#1143,#1144),.UNSPECIFIED.,.F.,.F.,(4,1,1,1,1,1,1,1,4),
(0.00218765886260854,0.00273596439002087,0.00328426991743319,0.00383257544484551,
0.00438088097225784,0.00492918649967016,0.00547749202708249,0.00602579755449481,
0.00657410308190714),.UNSPECIFIED.);
#48=B_SPLINE_CURVE_WITH_KNOTS('',3,(#1325,#1326,#1327,#1328,#1329,#1330,
#1331,#1332,#1333),.UNSPECIFIED.,.F.,.F.,(4,1,1,1,1,1,4),(0.00346585108114735,
0.00519668620840584,0.00606210377203509,0.00692752133566434,0.00779293889929359,
0.00865835646292284,0.0103891915901813),.UNSPECIFIED.);
#49=B_SPLINE_CURVE_WITH_KNOTS('',3,(#1358,#1359,#1360,#1361,#1362,#1363,
#1364,#1365,#1366),.UNSPECIFIED.,.F.,.F.,(4,1,1,1,1,1,4),(0.00206640380508722,
0.00309904876878912,0.00361537125064007,0.00413169373249102,0.00464801621434197,
0.00516433869619292,0.00619698365989482),.UNSPECIFIED.);
#50=B_SPLINE_CURVE_WITH_KNOTS('',3,(#1371,#1372,#1373,#1374,#1375,#1376,
#1377,#1378,#1379,#1380,#1381),.UNSPECIFIED.,.F.,.F.,(4,1,1,1,1,1,1,1,4),
(0.00218765886263097,0.0027359643900435,0.00328426991745603,0.00383257544486855,
0.00438088097228108,0.00492918649969361,0.00547749202710614,0.00602579755451867,
0.0065741030819312),.UNSPECIFIED.);
#51=CIRCLE('',#676,0.002);
#52=CIRCLE('',#677,0.002);
#53=CIRCLE('',#679,0.005);
#54=CIRCLE('',#680,0.005);
#55=CIRCLE('',#682,0.005);
#56=CIRCLE('',#683,0.005);
#57=CIRCLE('',#685,0.0015);
#58=CIRCLE('',#687,0.0015);
#59=CIRCLE('',#689,0.006);
#60=CIRCLE('',#690,0.0035);
#61=CIRCLE('',#692,0.002);
#62=CIRCLE('',#693,0.002);
#63=CIRCLE('',#697,0.001);
#64=CIRCLE('',#698,0.001);
#65=CIRCLE('',#699,0.006);
#66=CIRCLE('',#701,0.006);
#67=CIRCLE('',#702,0.001);
#68=CIRCLE('',#703,0.001);
#69=CIRCLE('',#705,0.001);
#70=CIRCLE('',#706,0.001);
#71=CIRCLE('',#708,0.006);
#72=CIRCLE('',#709,0.001);
#73=CIRCLE('',#710,0.001);
#74=CIRCLE('',#712,0.001);
#75=CIRCLE('',#713,0.001);
#76=CIRCLE('',#714,0.00075);
#77=CIRCLE('',#715,0.00075);
#78=CIRCLE('',#716,0.00075);
#79=CIRCLE('',#717,0.00075);
#80=CIRCLE('',#718,0.00075);
#81=CIRCLE('',#719,0.00075);
#82=CIRCLE('',#720,0.00075);
#83=CIRCLE('',#721,0.00075);
#84=CIRCLE('',#723,0.002);
#85=CIRCLE('',#725,0.005);
#86=CIRCLE('',#726,0.005);
#87=CIRCLE('',#728,0.0015);
#88=CIRCLE('',#730,0.0015);
#89=CIRCLE('',#732,0.006);
#90=CIRCLE('',#733,0.0035);
#91=CIRCLE('',#735,0.002);
#92=CIRCLE('',#736,0.002);
#93=CIRCLE('',#739,0.001);
#94=CIRCLE('',#740,0.001);
#95=CIRCLE('',#741,0.006);
#96=CIRCLE('',#743,0.006);
#97=CIRCLE('',#744,0.001);
#98=CIRCLE('',#745,0.001);
#99=CIRCLE('',#747,0.001);
#100=CIRCLE('',#748,0.001);
#101=CIRCLE('',#750,0.006);
#102=CIRCLE('',#751,0.001);
#103=CIRCLE('',#752,0.001);
#104=CIRCLE('',#754,0.001);
#105=CIRCLE('',#755,0.001);
#106=CIRCLE('',#756,0.00075);
#107=CIRCLE('',#757,0.00075);
#108=CIRCLE('',#758,0.00075);
#109=CIRCLE('',#759,0.00075);
#110=CIRCLE('',#761,0.002);
#111=ORIENTED_EDGE('',*,*,#315,.F.);
#112=ORIENTED_EDGE('',*,*,#316,.F.);
#113=ORIENTED_EDGE('',*,*,#317,.F.);
#114=ORIENTED_EDGE('',*,*,#318,.F.);
#115=ORIENTED_EDGE('',*,*,#319,.F.);
#116=ORIENTED_EDGE('',*,*,#320,.T.);
#117=ORIENTED_EDGE('',*,*,#321,.F.);
#118=ORIENTED_EDGE('',*,*,#322,.T.);
#119=ORIENTED_EDGE('',*,*,#323,.F.);
#120=ORIENTED_EDGE('',*,*,#324,.T.);
#121=ORIENTED_EDGE('',*,*,#325,.F.);
#122=ORIENTED_EDGE('',*,*,#326,.T.);
#123=ORIENTED_EDGE('',*,*,#327,.F.);
#124=ORIENTED_EDGE('',*,*,#328,.T.);
#125=ORIENTED_EDGE('',*,*,#329,.F.);
#126=ORIENTED_EDGE('',*,*,#330,.T.);
#127=ORIENTED_EDGE('',*,*,#331,.F.);
#128=ORIENTED_EDGE('',*,*,#332,.T.);
#129=ORIENTED_EDGE('',*,*,#333,.F.);
#130=ORIENTED_EDGE('',*,*,#334,.T.);
#131=ORIENTED_EDGE('',*,*,#335,.F.);
#132=ORIENTED_EDGE('',*,*,#336,.F.);
#133=ORIENTED_EDGE('',*,*,#337,.F.);
#134=ORIENTED_EDGE('',*,*,#338,.F.);
#135=ORIENTED_EDGE('',*,*,#339,.F.);
#136=ORIENTED_EDGE('',*,*,#338,.T.);
#137=ORIENTED_EDGE('',*,*,#340,.F.);
#138=ORIENTED_EDGE('',*,*,#341,.T.);
#139=ORIENTED_EDGE('',*,*,#342,.F.);
#140=ORIENTED_EDGE('',*,*,#343,.T.);
#141=ORIENTED_EDGE('',*,*,#344,.F.);
#142=ORIENTED_EDGE('',*,*,#345,.T.);
#143=ORIENTED_EDGE('',*,*,#346,.F.);
#144=ORIENTED_EDGE('',*,*,#341,.F.);
#145=ORIENTED_EDGE('',*,*,#347,.F.);
#146=ORIENTED_EDGE('',*,*,#345,.F.);
#147=ORIENTED_EDGE('',*,*,#348,.T.);
#148=ORIENTED_EDGE('',*,*,#349,.T.);
#149=ORIENTED_EDGE('',*,*,#350,.T.);
#150=ORIENTED_EDGE('',*,*,#351,.T.);
#151=ORIENTED_EDGE('',*,*,#352,.T.);
#152=ORIENTED_EDGE('',*,*,#353,.T.);
#153=ORIENTED_EDGE('',*,*,#354,.T.);
#154=ORIENTED_EDGE('',*,*,#355,.T.);
#155=ORIENTED_EDGE('',*,*,#356,.F.);
#156=ORIENTED_EDGE('',*,*,#332,.F.);
#157=ORIENTED_EDGE('',*,*,#357,.F.);
#158=ORIENTED_EDGE('',*,*,#358,.F.);
#159=ORIENTED_EDGE('',*,*,#359,.F.);
#160=ORIENTED_EDGE('',*,*,#360,.T.);
#161=ORIENTED_EDGE('',*,*,#358,.T.);
#162=ORIENTED_EDGE('',*,*,#361,.T.);
#163=ORIENTED_EDGE('',*,*,#362,.F.);
#164=ORIENTED_EDGE('',*,*,#330,.F.);
#165=ORIENTED_EDGE('',*,*,#363,.F.);
#166=ORIENTED_EDGE('',*,*,#359,.T.);
#167=ORIENTED_EDGE('',*,*,#364,.F.);
#168=ORIENTED_EDGE('',*,*,#365,.T.);
#169=ORIENTED_EDGE('',*,*,#343,.F.);
#170=ORIENTED_EDGE('',*,*,#366,.T.);
#171=ORIENTED_EDGE('',*,*,#367,.F.);
#172=ORIENTED_EDGE('',*,*,#326,.F.);
#173=ORIENTED_EDGE('',*,*,#368,.F.);
#174=ORIENTED_EDGE('',*,*,#364,.T.);
#175=ORIENTED_EDGE('',*,*,#350,.F.);
#176=ORIENTED_EDGE('',*,*,#369,.T.);
#177=ORIENTED_EDGE('',*,*,#320,.F.);
#178=ORIENTED_EDGE('',*,*,#370,.T.);
#179=ORIENTED_EDGE('',*,*,#348,.F.);
#180=ORIENTED_EDGE('',*,*,#371,.T.);
#181=ORIENTED_EDGE('',*,*,#334,.F.);
#182=ORIENTED_EDGE('',*,*,#372,.T.);
#183=ORIENTED_EDGE('',*,*,#352,.F.);
#184=ORIENTED_EDGE('',*,*,#373,.T.);
#185=ORIENTED_EDGE('',*,*,#328,.F.);
#186=ORIENTED_EDGE('',*,*,#374,.T.);
#187=ORIENTED_EDGE('',*,*,#354,.F.);
#188=ORIENTED_EDGE('',*,*,#375,.T.);
#189=ORIENTED_EDGE('',*,*,#322,.F.);
#190=ORIENTED_EDGE('',*,*,#376,.T.);
#191=ORIENTED_EDGE('',*,*,#377,.F.);
#192=ORIENTED_EDGE('',*,*,#324,.F.);
#193=ORIENTED_EDGE('',*,*,#378,.F.);
#194=ORIENTED_EDGE('',*,*,#379,.F.);
#195=ORIENTED_EDGE('',*,*,#380,.F.);
#196=ORIENTED_EDGE('',*,*,#381,.F.);
#197=ORIENTED_EDGE('',*,*,#382,.F.);
#198=ORIENTED_EDGE('',*,*,#383,.F.);
#199=ORIENTED_EDGE('',*,*,#384,.F.);
#200=ORIENTED_EDGE('',*,*,#385,.T.);
#201=ORIENTED_EDGE('',*,*,#386,.F.);
#202=ORIENTED_EDGE('',*,*,#385,.F.);
#203=ORIENTED_EDGE('',*,*,#387,.F.);
#204=ORIENTED_EDGE('',*,*,#388,.F.);
#205=ORIENTED_EDGE('',*,*,#389,.F.);
#206=ORIENTED_EDGE('',*,*,#390,.F.);
#207=ORIENTED_EDGE('',*,*,#391,.F.);
#208=ORIENTED_EDGE('',*,*,#392,.F.);
#209=ORIENTED_EDGE('',*,*,#393,.F.);
#210=ORIENTED_EDGE('',*,*,#388,.T.);
#211=ORIENTED_EDGE('',*,*,#394,.F.);
#212=ORIENTED_EDGE('',*,*,#392,.T.);
#213=ORIENTED_EDGE('',*,*,#395,.F.);
#214=ORIENTED_EDGE('',*,*,#396,.T.);
#215=ORIENTED_EDGE('',*,*,#397,.F.);
#216=ORIENTED_EDGE('',*,*,#398,.T.);
#217=ORIENTED_EDGE('',*,*,#399,.F.);
#218=ORIENTED_EDGE('',*,*,#336,.T.);
#219=ORIENTED_EDGE('',*,*,#400,.F.);
#220=ORIENTED_EDGE('',*,*,#401,.T.);
#221=ORIENTED_EDGE('',*,*,#402,.T.);
#222=ORIENTED_EDGE('',*,*,#403,.T.);
#223=ORIENTED_EDGE('',*,*,#401,.F.);
#224=ORIENTED_EDGE('',*,*,#404,.T.);
#225=ORIENTED_EDGE('',*,*,#405,.F.);
#226=ORIENTED_EDGE('',*,*,#381,.T.);
#227=ORIENTED_EDGE('',*,*,#406,.F.);
#228=ORIENTED_EDGE('',*,*,#402,.F.);
#229=ORIENTED_EDGE('',*,*,#407,.T.);
#230=ORIENTED_EDGE('',*,*,#408,.T.);
#231=ORIENTED_EDGE('',*,*,#390,.T.);
#232=ORIENTED_EDGE('',*,*,#409,.T.);
#233=ORIENTED_EDGE('',*,*,#410,.F.);
#234=ORIENTED_EDGE('',*,*,#379,.T.);
#235=ORIENTED_EDGE('',*,*,#411,.F.);
#236=ORIENTED_EDGE('',*,*,#407,.F.);
#237=ORIENTED_EDGE('',*,*,#383,.T.);
#238=ORIENTED_EDGE('',*,*,#412,.T.);
#239=ORIENTED_EDGE('',*,*,#395,.T.);
#240=ORIENTED_EDGE('',*,*,#413,.T.);
#241=ORIENTED_EDGE('',*,*,#318,.T.);
#242=ORIENTED_EDGE('',*,*,#414,.T.);
#243=ORIENTED_EDGE('',*,*,#397,.T.);
#244=ORIENTED_EDGE('',*,*,#415,.T.);
#245=ORIENTED_EDGE('',*,*,#416,.F.);
#246=ORIENTED_EDGE('',*,*,#316,.T.);
#247=ORIENTED_EDGE('',*,*,#361,.F.);
#248=ORIENTED_EDGE('',*,*,#357,.T.);
#249=ORIENTED_EDGE('',*,*,#331,.T.);
#250=ORIENTED_EDGE('',*,*,#399,.T.);
#251=ORIENTED_EDGE('',*,*,#403,.F.);
#252=ORIENTED_EDGE('',*,*,#406,.T.);
#253=ORIENTED_EDGE('',*,*,#380,.T.);
#254=ORIENTED_EDGE('',*,*,#410,.T.);
#255=ORIENTED_EDGE('',*,*,#409,.F.);
#256=ORIENTED_EDGE('',*,*,#389,.T.);
#257=ORIENTED_EDGE('',*,*,#394,.T.);
#258=ORIENTED_EDGE('',*,*,#387,.T.);
#259=ORIENTED_EDGE('',*,*,#384,.T.);
#260=ORIENTED_EDGE('',*,*,#386,.T.);
#261=ORIENTED_EDGE('',*,*,#393,.T.);
#262=ORIENTED_EDGE('',*,*,#391,.T.);
#263=ORIENTED_EDGE('',*,*,#408,.F.);
#264=ORIENTED_EDGE('',*,*,#411,.T.);
#265=ORIENTED_EDGE('',*,*,#378,.T.);
#266=ORIENTED_EDGE('',*,*,#413,.F.);
#267=ORIENTED_EDGE('',*,*,#398,.F.);
#268=ORIENTED_EDGE('',*,*,#414,.F.);
#269=ORIENTED_EDGE('',*,*,#317,.T.);
#270=ORIENTED_EDGE('',*,*,#416,.T.);
#271=ORIENTED_EDGE('',*,*,#315,.T.);
#272=ORIENTED_EDGE('',*,*,#377,.T.);
#273=ORIENTED_EDGE('',*,*,#323,.T.);
#274=ORIENTED_EDGE('',*,*,#375,.F.);
#275=ORIENTED_EDGE('',*,*,#353,.F.);
#276=ORIENTED_EDGE('',*,*,#374,.F.);
#277=ORIENTED_EDGE('',*,*,#327,.T.);
#278=ORIENTED_EDGE('',*,*,#367,.T.);
#279=ORIENTED_EDGE('',*,*,#366,.F.);
#280=ORIENTED_EDGE('',*,*,#342,.T.);
#281=ORIENTED_EDGE('',*,*,#347,.T.);
#282=ORIENTED_EDGE('',*,*,#340,.T.);
#283=ORIENTED_EDGE('',*,*,#337,.T.);
#284=ORIENTED_EDGE('',*,*,#339,.T.);
#285=ORIENTED_EDGE('',*,*,#346,.T.);
#286=ORIENTED_EDGE('',*,*,#344,.T.);
#287=ORIENTED_EDGE('',*,*,#365,.F.);
#288=ORIENTED_EDGE('',*,*,#368,.T.);
#289=ORIENTED_EDGE('',*,*,#325,.T.);
#290=ORIENTED_EDGE('',*,*,#362,.T.);
#291=ORIENTED_EDGE('',*,*,#400,.T.);
#292=ORIENTED_EDGE('',*,*,#335,.T.);
#293=ORIENTED_EDGE('',*,*,#371,.F.);
#294=ORIENTED_EDGE('',*,*,#351,.F.);
#295=ORIENTED_EDGE('',*,*,#370,.F.);
#296=ORIENTED_EDGE('',*,*,#319,.T.);
#297=ORIENTED_EDGE('',*,*,#415,.F.);
#298=ORIENTED_EDGE('',*,*,#396,.F.);
#299=ORIENTED_EDGE('',*,*,#412,.F.);
#300=ORIENTED_EDGE('',*,*,#382,.T.);
#301=ORIENTED_EDGE('',*,*,#405,.T.);
#302=ORIENTED_EDGE('',*,*,#404,.F.);
#303=ORIENTED_EDGE('',*,*,#372,.F.);
#304=ORIENTED_EDGE('',*,*,#333,.T.);
#305=ORIENTED_EDGE('',*,*,#356,.T.);
#306=ORIENTED_EDGE('',*,*,#360,.F.);
#307=ORIENTED_EDGE('',*,*,#363,.T.);
#308=ORIENTED_EDGE('',*,*,#329,.T.);
#309=ORIENTED_EDGE('',*,*,#373,.F.);
#310=ORIENTED_EDGE('',*,*,#355,.F.);
#311=ORIENTED_EDGE('',*,*,#376,.F.);
#312=ORIENTED_EDGE('',*,*,#321,.T.);
#313=ORIENTED_EDGE('',*,*,#369,.F.);
#314=ORIENTED_EDGE('',*,*,#349,.F.);
#315=EDGE_CURVE('',#417,#418,#485,.F.);
#316=EDGE_CURVE('',#419,#417,#51,.F.);
#317=EDGE_CURVE('',#420,#419,#486,.T.);
#318=EDGE_CURVE('',#421,#420,#39,.T.);
#319=EDGE_CURVE('',#422,#421,#487,.T.);
#320=EDGE_CURVE('',#422,#423,#40,.T.);
#321=EDGE_CURVE('',#424,#423,#488,.T.);
#322=EDGE_CURVE('',#424,#425,#41,.T.);
#323=EDGE_CURVE('',#426,#425,#489,.T.);
#324=EDGE_CURVE('',#426,#418,#52,.F.);
#325=EDGE_CURVE('',#427,#428,#490,.T.);
#326=EDGE_CURVE('',#427,#429,#53,.F.);
#327=EDGE_CURVE('',#430,#429,#491,.F.);
#328=EDGE_CURVE('',#430,#431,#42,.T.);
#329=EDGE_CURVE('',#432,#431,#492,.F.);
#330=EDGE_CURVE('',#432,#428,#54,.F.);
#331=EDGE_CURVE('',#433,#434,#493,.T.);
#332=EDGE_CURVE('',#433,#435,#55,.F.);
#333=EDGE_CURVE('',#436,#435,#494,.F.);
#334=EDGE_CURVE('',#436,#437,#43,.T.);
#335=EDGE_CURVE('',#438,#437,#495,.F.);
#336=EDGE_CURVE('',#434,#438,#56,.F.);
#337=EDGE_CURVE('',#439,#440,#496,.T.);
#338=EDGE_CURVE('',#440,#439,#57,.T.);
#339=EDGE_CURVE('',#440,#441,#497,.T.);
#340=EDGE_CURVE('',#442,#439,#498,.F.);
#341=EDGE_CURVE('',#442,#441,#58,.F.);
#342=EDGE_CURVE('',#443,#444,#499,.T.);
#343=EDGE_CURVE('',#443,#445,#59,.F.);
#344=EDGE_CURVE('',#446,#445,#500,.T.);
#345=EDGE_CURVE('',#446,#444,#60,.T.);
#346=EDGE_CURVE('',#441,#446,#61,.F.);
#347=EDGE_CURVE('',#444,#442,#62,.F.);
#348=EDGE_CURVE('',#447,#448,#44,.T.);
#349=EDGE_CURVE('',#448,#449,#501,.T.);
#350=EDGE_CURVE('',#449,#450,#45,.T.);
#351=EDGE_CURVE('',#450,#447,#502,.F.);
#352=EDGE_CURVE('',#451,#452,#46,.T.);
#353=EDGE_CURVE('',#452,#453,#503,.T.);
#354=EDGE_CURVE('',#453,#454,#47,.T.);
#355=EDGE_CURVE('',#454,#451,#504,.F.);
#356=EDGE_CURVE('',#435,#455,#63,.F.);
#357=EDGE_CURVE('',#456,#433,#64,.F.);
#358=EDGE_CURVE('',#455,#456,#65,.T.);
#359=EDGE_CURVE('',#457,#458,#66,.F.);
#360=EDGE_CURVE('',#457,#455,#67,.F.);
#361=EDGE_CURVE('',#456,#458,#68,.F.);
#362=EDGE_CURVE('',#428,#458,#69,.F.);
#363=EDGE_CURVE('',#457,#432,#70,.F.);
#364=EDGE_CURVE('',#459,#460,#71,.F.);
#365=EDGE_CURVE('',#459,#445,#72,.F.);
#366=EDGE_CURVE('',#443,#460,#73,.F.);
#367=EDGE_CURVE('',#429,#460,#74,.F.);
#368=EDGE_CURVE('',#459,#427,#75,.F.);
#369=EDGE_CURVE('',#449,#423,#76,.F.);
#370=EDGE_CURVE('',#422,#450,#77,.F.);
#371=EDGE_CURVE('',#447,#437,#78,.F.);
#372=EDGE_CURVE('',#436,#448,#79,.F.);
#373=EDGE_CURVE('',#451,#431,#80,.F.);
#374=EDGE_CURVE('',#430,#452,#81,.F.);
#375=EDGE_CURVE('',#453,#425,#82,.F.);
#376=EDGE_CURVE('',#424,#454,#83,.F.);
#377=EDGE_CURVE('',#418,#426,#84,.F.);
#378=EDGE_CURVE('',#461,#462,#505,.T.);
#379=EDGE_CURVE('',#463,#461,#85,.F.);
#380=EDGE_CURVE('',#464,#463,#506,.F.);
#381=EDGE_CURVE('',#465,#464,#86,.F.);
#382=EDGE_CURVE('',#466,#465,#507,.T.);
#383=EDGE_CURVE('',#462,#466,#48,.T.);
#384=EDGE_CURVE('',#467,#468,#508,.T.);
#385=EDGE_CURVE('',#467,#468,#87,.T.);
#386=EDGE_CURVE('',#468,#469,#509,.T.);
#387=EDGE_CURVE('',#470,#467,#510,.F.);
#388=EDGE_CURVE('',#469,#470,#88,.F.);
#389=EDGE_CURVE('',#471,#472,#511,.T.);
#390=EDGE_CURVE('',#473,#471,#89,.F.);
#391=EDGE_CURVE('',#474,#473,#512,.T.);
#392=EDGE_CURVE('',#472,#474,#90,.T.);
#393=EDGE_CURVE('',#469,#474,#91,.F.);
#394=EDGE_CURVE('',#472,#470,#92,.F.);
#395=EDGE_CURVE('',#475,#476,#49,.T.);
#396=EDGE_CURVE('',#475,#477,#513,.T.);
#397=EDGE_CURVE('',#478,#477,#50,.T.);
#398=EDGE_CURVE('',#478,#476,#514,.F.);
#399=EDGE_CURVE('',#434,#479,#93,.F.);
#400=EDGE_CURVE('',#480,#438,#94,.F.);
#401=EDGE_CURVE('',#480,#479,#95,.T.);
#402=EDGE_CURVE('',#481,#482,#96,.F.);
#403=EDGE_CURVE('',#482,#479,#97,.F.);
#404=EDGE_CURVE('',#480,#481,#98,.F.);
#405=EDGE_CURVE('',#465,#481,#99,.F.);
#406=EDGE_CURVE('',#482,#464,#100,.F.);
#407=EDGE_CURVE('',#483,#484,#101,.F.);
#408=EDGE_CURVE('',#484,#473,#102,.F.);
#409=EDGE_CURVE('',#471,#483,#103,.F.);
#410=EDGE_CURVE('',#463,#483,#104,.F.);
#411=EDGE_CURVE('',#484,#461,#105,.F.);
#412=EDGE_CURVE('',#466,#475,#106,.F.);
#413=EDGE_CURVE('',#476,#462,#107,.F.);
#414=EDGE_CURVE('',#420,#478,#108,.F.);
#415=EDGE_CURVE('',#477,#421,#109,.F.);
#416=EDGE_CURVE('',#419,#417,#110,.F.);
#417=VERTEX_POINT('',#980);
#418=VERTEX_POINT('',#981);
#419=VERTEX_POINT('',#983);
#420=VERTEX_POINT('',#985);
#421=VERTEX_POINT('',#997);
#422=VERTEX_POINT('',#999);
#423=VERTEX_POINT('',#1010);
#424=VERTEX_POINT('',#1012);
#425=VERTEX_POINT('',#1024);
#426=VERTEX_POINT('',#1026);
#427=VERTEX_POINT('',#1030);
#428=VERTEX_POINT('',#1031);
#429=VERTEX_POINT('',#1033);
#430=VERTEX_POINT('',#1035);
#431=VERTEX_POINT('',#1045);
#432=VERTEX_POINT('',#1047);
#433=VERTEX_POINT('',#1051);
#434=VERTEX_POINT('',#1052);
#435=VERTEX_POINT('',#1054);
#436=VERTEX_POINT('',#1056);
#437=VERTEX_POINT('',#1066);
#438=VERTEX_POINT('',#1068);
#439=VERTEX_POINT('',#1072);
#440=VERTEX_POINT('',#1073);
#441=VERTEX_POINT('',#1077);
#442=VERTEX_POINT('',#1079);
#443=VERTEX_POINT('',#1083);
#444=VERTEX_POINT('',#1084);
#445=VERTEX_POINT('',#1086);
#446=VERTEX_POINT('',#1088);
#447=VERTEX_POINT('',#1103);
#448=VERTEX_POINT('',#1104);
#449=VERTEX_POINT('',#1106);
#450=VERTEX_POINT('',#1118);
#451=VERTEX_POINT('',#1130);
#452=VERTEX_POINT('',#1131);
#453=VERTEX_POINT('',#1133);
#454=VERTEX_POINT('',#1145);
#455=VERTEX_POINT('',#1149);
#456=VERTEX_POINT('',#1151);
#457=VERTEX_POINT('',#1155);
#458=VERTEX_POINT('',#1156);
#459=VERTEX_POINT('',#1164);
#460=VERTEX_POINT('',#1165);
#461=VERTEX_POINT('',#1315);
#462=VERTEX_POINT('',#1316);
#463=VERTEX_POINT('',#1318);
#464=VERTEX_POINT('',#1320);
#465=VERTEX_POINT('',#1322);
#466=VERTEX_POINT('',#1324);
#467=VERTEX_POINT('',#1336);
#468=VERTEX_POINT('',#1337);
#469=VERTEX_POINT('',#1341);
#470=VERTEX_POINT('',#1343);
#471=VERTEX_POINT('',#1347);
#472=VERTEX_POINT('',#1348);
#473=VERTEX_POINT('',#1350);
#474=VERTEX_POINT('',#1352);
#475=VERTEX_POINT('',#1367);
#476=VERTEX_POINT('',#1368);
#477=VERTEX_POINT('',#1370);
#478=VERTEX_POINT('',#1382);
#479=VERTEX_POINT('',#1386);
#480=VERTEX_POINT('',#1388);
#481=VERTEX_POINT('',#1392);
#482=VERTEX_POINT('',#1393);
#483=VERTEX_POINT('',#1401);
#484=VERTEX_POINT('',#1402);
#485=LINE('',#979,#515);
#486=LINE('',#984,#516);
#487=LINE('',#998,#517);
#488=LINE('',#1011,#518);
#489=LINE('',#1025,#519);
#490=LINE('',#1029,#520);
#491=LINE('',#1034,#521);
#492=LINE('',#1046,#522);
#493=LINE('',#1050,#523);
#494=LINE('',#1055,#524);
#495=LINE('',#1067,#525);
#496=LINE('',#1071,#526);
#497=LINE('',#1076,#527);
#498=LINE('',#1078,#528);
#499=LINE('',#1082,#529);
#500=LINE('',#1087,#530);
#501=LINE('',#1105,#531);
#502=LINE('',#1119,#532);
#503=LINE('',#1132,#533);
#504=LINE('',#1146,#534);
#505=LINE('',#1314,#535);
#506=LINE('',#1319,#536);
#507=LINE('',#1323,#537);
#508=LINE('',#1335,#538);
#509=LINE('',#1340,#539);
#510=LINE('',#1342,#540);
#511=LINE('',#1346,#541);
#512=LINE('',#1351,#542);
#513=LINE('',#1369,#543);
#514=LINE('',#1383,#544);
#515=VECTOR('',#769,1.);
#516=VECTOR('',#772,1.);
#517=VECTOR('',#773,1.);
#518=VECTOR('',#774,1.);
#519=VECTOR('',#775,1.);
#520=VECTOR('',#780,1.);
#521=VECTOR('',#783,1.);
#522=VECTOR('',#784,1.);
#523=VECTOR('',#789,1.);
#524=VECTOR('',#792,1.);
#525=VECTOR('',#793,1.);
#526=VECTOR('',#798,1.);
#527=VECTOR('',#803,1.);
#528=VECTOR('',#804,1.);
#529=VECTOR('',#809,1.);
#530=VECTOR('',#812,1.);
#531=VECTOR('',#823,1.);
#532=VECTOR('',#824,1.);
#533=VECTOR('',#827,1.);
#534=VECTOR('',#828,1.);
#535=VECTOR('',#887,1.);
#536=VECTOR('',#890,1.);
#537=VECTOR('',#893,1.);
#538=VECTOR('',#896,1.);
#539=VECTOR('',#901,1.);
#540=VECTOR('',#902,1.);
#541=VECTOR('',#907,1.);
#542=VECTOR('',#910,1.);
#543=VECTOR('',#921,1.);
#544=VECTOR('',#922,1.);
#545=EDGE_LOOP('',(#111,#112,#113,#114,#115,#116,#117,#118,#119,#120));
#546=EDGE_LOOP('',(#121,#122,#123,#124,#125,#126));
#547=EDGE_LOOP('',(#127,#128,#129,#130,#131,#132));
#548=EDGE_LOOP('',(#133,#134));
#549=EDGE_LOOP('',(#135,#136,#137,#138));
#550=EDGE_LOOP('',(#139,#140,#141,#142));
#551=EDGE_LOOP('',(#143,#144,#145,#146));
#552=EDGE_LOOP('',(#147,#148,#149,#150));
#553=EDGE_LOOP('',(#151,#152,#153,#154));
#554=EDGE_LOOP('',(#155,#156,#157,#158));
#555=EDGE_LOOP('',(#159,#160,#161,#162));
#556=EDGE_LOOP('',(#163,#164,#165,#166));
#557=EDGE_LOOP('',(#167,#168,#169,#170));
#558=EDGE_LOOP('',(#171,#172,#173,#174));
#559=EDGE_LOOP('',(#175,#176,#177,#178));
#560=EDGE_LOOP('',(#179,#180,#181,#182));
#561=EDGE_LOOP('',(#183,#184,#185,#186));
#562=EDGE_LOOP('',(#187,#188,#189,#190));
#563=EDGE_LOOP('',(#191,#192));
#564=EDGE_LOOP('',(#193,#194,#195,#196,#197,#198));
#565=EDGE_LOOP('',(#199,#200));
#566=EDGE_LOOP('',(#201,#202,#203,#204));
#567=EDGE_LOOP('',(#205,#206,#207,#208));
#568=EDGE_LOOP('',(#209,#210,#211,#212));
#569=EDGE_LOOP('',(#213,#214,#215,#216));
#570=EDGE_LOOP('',(#217,#218,#219,#220));
#571=EDGE_LOOP('',(#221,#222,#223,#224));
#572=EDGE_LOOP('',(#225,#226,#227,#228));
#573=EDGE_LOOP('',(#229,#230,#231,#232));
#574=EDGE_LOOP('',(#233,#234,#235,#236));
#575=EDGE_LOOP('',(#237,#238,#239,#240));
#576=EDGE_LOOP('',(#241,#242,#243,#244));
#577=EDGE_LOOP('',(#245,#246));
#578=EDGE_LOOP('',(#247,#248,#249,#250,#251,#252,#253,#254,#255,#256,#257,
#258,#259,#260,#261,#262,#263,#264,#265,#266,#267,#268,#269,#270,#271,#272,
#273,#274,#275,#276,#277,#278,#279,#280,#281,#282,#283,#284,#285,#286,#287,
#288,#289,#290));
#579=EDGE_LOOP('',(#291,#292,#293,#294,#295,#296,#297,#298,#299,#300,#301,
#302));
#580=EDGE_LOOP('',(#303,#304,#305,#306,#307,#308,#309,#310,#311,#312,#313,
#314));
#581=FACE_BOUND('',#545,.T.);
#582=FACE_BOUND('',#546,.T.);
#583=FACE_BOUND('',#547,.T.);
#584=FACE_BOUND('',#548,.T.);
#585=FACE_BOUND('',#549,.T.);
#586=FACE_BOUND('',#550,.T.);
#587=FACE_BOUND('',#551,.T.);
#588=FACE_BOUND('',#552,.T.);
#589=FACE_BOUND('',#553,.T.);
#590=FACE_BOUND('',#554,.T.);
#591=FACE_BOUND('',#555,.T.);
#592=FACE_BOUND('',#556,.T.);
#593=FACE_BOUND('',#557,.T.);
#594=FACE_BOUND('',#558,.T.);
#595=FACE_BOUND('',#559,.T.);
#596=FACE_BOUND('',#560,.T.);
#597=FACE_BOUND('',#561,.T.);
#598=FACE_BOUND('',#562,.T.);
#599=FACE_BOUND('',#563,.T.);
#600=FACE_BOUND('',#564,.T.);
#601=FACE_BOUND('',#565,.T.);
#602=FACE_BOUND('',#566,.T.);
#603=FACE_BOUND('',#567,.T.);
#604=FACE_BOUND('',#568,.T.);
#605=FACE_BOUND('',#569,.T.);
#606=FACE_BOUND('',#570,.T.);
#607=FACE_BOUND('',#571,.T.);
#608=FACE_BOUND('',#572,.T.);
#609=FACE_BOUND('',#573,.T.);
#610=FACE_BOUND('',#574,.T.);
#611=FACE_BOUND('',#575,.T.);
#612=FACE_BOUND('',#576,.T.);
#613=FACE_BOUND('',#577,.T.);
#614=FACE_BOUND('',#578,.T.);
#615=FACE_BOUND('',#579,.T.);
#616=FACE_BOUND('',#580,.T.);
#617=CYLINDRICAL_SURFACE('',#675,0.002);
#618=CYLINDRICAL_SURFACE('',#678,0.005);
#619=CYLINDRICAL_SURFACE('',#681,0.005);
#620=CYLINDRICAL_SURFACE('',#686,0.0015);
#621=CYLINDRICAL_SURFACE('',#694,0.00125);
#622=CYLINDRICAL_SURFACE('',#695,0.00125);
#623=CYLINDRICAL_SURFACE('',#724,0.005);
#624=CYLINDRICAL_SURFACE('',#729,0.0015);
#625=CYLINDRICAL_SURFACE('',#737,0.00125);
#626=ADVANCED_FACE('',(#581),#617,.F.);
#627=ADVANCED_FACE('',(#582),#618,.T.);
#628=ADVANCED_FACE('',(#583),#619,.T.);
#629=ADVANCED_FACE('',(#584),#32,.F.);
#630=ADVANCED_FACE('',(#585),#620,.T.);
#631=ADVANCED_FACE('',(#586),#33,.F.);
#632=ADVANCED_FACE('',(#587),#20,.F.);
#633=ADVANCED_FACE('',(#588),#621,.F.);
#634=ADVANCED_FACE('',(#589),#622,.F.);
#635=ADVANCED_FACE('',(#590),#21,.F.);
#636=ADVANCED_FACE('',(#591),#22,.T.);
#637=ADVANCED_FACE('',(#592),#23,.F.);
#638=ADVANCED_FACE('',(#593),#24,.T.);
#639=ADVANCED_FACE('',(#594),#25,.F.);
#640=ADVANCED_FACE('',(#595),#14,.T.);
#641=ADVANCED_FACE('',(#596),#15,.T.);
#642=ADVANCED_FACE('',(#597),#16,.T.);
#643=ADVANCED_FACE('',(#598),#17,.T.);
#644=ADVANCED_FACE('',(#599),#12,.F.);
#645=ADVANCED_FACE('',(#600),#623,.T.);
#646=ADVANCED_FACE('',(#601),#34,.F.);
#647=ADVANCED_FACE('',(#602),#624,.T.);
#648=ADVANCED_FACE('',(#603),#35,.F.);
#649=ADVANCED_FACE('',(#604),#26,.F.);
#650=ADVANCED_FACE('',(#605),#625,.F.);
#651=ADVANCED_FACE('',(#606),#27,.F.);
#652=ADVANCED_FACE('',(#607),#28,.T.);
#653=ADVANCED_FACE('',(#608),#29,.F.);
#654=ADVANCED_FACE('',(#609),#30,.T.);
#655=ADVANCED_FACE('',(#610),#31,.F.);
#656=ADVANCED_FACE('',(#611),#18,.T.);
#657=ADVANCED_FACE('',(#612),#19,.T.);
#658=ADVANCED_FACE('',(#613),#13,.F.);
#659=ADVANCED_FACE('',(#614),#36,.T.);
#660=ADVANCED_FACE('',(#615),#37,.T.);
#661=ADVANCED_FACE('',(#616),#38,.T.);
#662=CLOSED_SHELL('',(#626,#627,#628,#629,#630,#631,#632,#633,#634,#635,
#636,#637,#638,#639,#640,#641,#642,#643,#644,#645,#646,#647,#648,#649,#650,
#651,#652,#653,#654,#655,#656,#657,#658,#659,#660,#661));
#663=STYLED_ITEM('',(#664),#671);
#664=PRESENTATION_STYLE_ASSIGNMENT((#665));
#665=SURFACE_STYLE_USAGE(.BOTH.,#666);
#666=SURFACE_SIDE_STYLE('',(#667));
#667=SURFACE_STYLE_FILL_AREA(#668);
#668=FILL_AREA_STYLE('',(#669));
#669=FILL_AREA_STYLE_COLOUR('',#670);
#670=COLOUR_RGB('',0.647058823529412,0.647058823529412,0.647058823529412);
#671=MANIFOLD_SOLID_BREP('Drum Large RH',#662);
#672=SHAPE_DEFINITION_REPRESENTATION(#1489,#673);
#673=SHAPE_REPRESENTATION('Drum Large RH',(#674),#1484);
#674=AXIS2_PLACEMENT_3D('',#977,#765,#766);
#675=AXIS2_PLACEMENT_3D('',#978,#767,#768);
#676=AXIS2_PLACEMENT_3D('',#982,#770,#771);
#677=AXIS2_PLACEMENT_3D('',#1027,#776,#777);
#678=AXIS2_PLACEMENT_3D('',#1028,#778,#779);
#679=AXIS2_PLACEMENT_3D('',#1032,#781,#782);
#680=AXIS2_PLACEMENT_3D('',#1048,#785,#786);
#681=AXIS2_PLACEMENT_3D('',#1049,#787,#788);
#682=AXIS2_PLACEMENT_3D('',#1053,#790,#791);
#683=AXIS2_PLACEMENT_3D('',#1069,#794,#795);
#684=AXIS2_PLACEMENT_3D('',#1070,#796,#797);
#685=AXIS2_PLACEMENT_3D('',#1074,#799,#800);
#686=AXIS2_PLACEMENT_3D('',#1075,#801,#802);
#687=AXIS2_PLACEMENT_3D('',#1080,#805,#806);
#688=AXIS2_PLACEMENT_3D('',#1081,#807,#808);
#689=AXIS2_PLACEMENT_3D('',#1085,#810,#811);
#690=AXIS2_PLACEMENT_3D('',#1089,#813,#814);
#691=AXIS2_PLACEMENT_3D('',#1090,#815,#816);
#692=AXIS2_PLACEMENT_3D('',#1091,#817,#818);
#693=AXIS2_PLACEMENT_3D('',#1092,#819,#820);
#694=AXIS2_PLACEMENT_3D('',#1093,#821,#822);
#695=AXIS2_PLACEMENT_3D('',#1120,#825,#826);
#696=AXIS2_PLACEMENT_3D('',#1147,#829,#830);
#697=AXIS2_PLACEMENT_3D('',#1148,#831,#832);
#698=AXIS2_PLACEMENT_3D('',#1150,#833,#834);
#699=AXIS2_PLACEMENT_3D('',#1152,#835,#836);
#700=AXIS2_PLACEMENT_3D('',#1153,#837,#838);
#701=AXIS2_PLACEMENT_3D('',#1154,#839,#840);
#702=AXIS2_PLACEMENT_3D('',#1157,#841,#842);
#703=AXIS2_PLACEMENT_3D('',#1158,#843,#844);
#704=AXIS2_PLACEMENT_3D('',#1159,#845,#846);
#705=AXIS2_PLACEMENT_3D('',#1160,#847,#848);
#706=AXIS2_PLACEMENT_3D('',#1161,#849,#850);
#707=AXIS2_PLACEMENT_3D('',#1162,#851,#852);
#708=AXIS2_PLACEMENT_3D('',#1163,#853,#854);
#709=AXIS2_PLACEMENT_3D('',#1166,#855,#856);
#710=AXIS2_PLACEMENT_3D('',#1167,#857,#858);
#711=AXIS2_PLACEMENT_3D('',#1168,#859,#860);
#712=AXIS2_PLACEMENT_3D('',#1169,#861,#862);
#713=AXIS2_PLACEMENT_3D('',#1170,#863,#864);
#714=AXIS2_PLACEMENT_3D('',#1204,#865,#866);
#715=AXIS2_PLACEMENT_3D('',#1205,#867,#868);
#716=AXIS2_PLACEMENT_3D('',#1239,#869,#870);
#717=AXIS2_PLACEMENT_3D('',#1240,#871,#872);
#718=AXIS2_PLACEMENT_3D('',#1274,#873,#874);
#719=AXIS2_PLACEMENT_3D('',#1275,#875,#876);
#720=AXIS2_PLACEMENT_3D('',#1309,#877,#878);
#721=AXIS2_PLACEMENT_3D('',#1310,#879,#880);
#722=AXIS2_PLACEMENT_3D('',#1311,#881,#882);
#723=AXIS2_PLACEMENT_3D('',#1312,#883,#884);
#724=AXIS2_PLACEMENT_3D('',#1313,#885,#886);
#725=AXIS2_PLACEMENT_3D('',#1317,#888,#889);
#726=AXIS2_PLACEMENT_3D('',#1321,#891,#892);
#727=AXIS2_PLACEMENT_3D('',#1334,#894,#895);
#728=AXIS2_PLACEMENT_3D('',#1338,#897,#898);
#729=AXIS2_PLACEMENT_3D('',#1339,#899,#900);
#730=AXIS2_PLACEMENT_3D('',#1344,#903,#904);
#731=AXIS2_PLACEMENT_3D('',#1345,#905,#906);
#732=AXIS2_PLACEMENT_3D('',#1349,#908,#909);
#733=AXIS2_PLACEMENT_3D('',#1353,#911,#912);
#734=AXIS2_PLACEMENT_3D('',#1354,#913,#914);
#735=AXIS2_PLACEMENT_3D('',#1355,#915,#916);
#736=AXIS2_PLACEMENT_3D('',#1356,#917,#918);
#737=AXIS2_PLACEMENT_3D('',#1357,#919,#920);
#738=AXIS2_PLACEMENT_3D('',#1384,#923,#924);
#739=AXIS2_PLACEMENT_3D('',#1385,#925,#926);
#740=AXIS2_PLACEMENT_3D('',#1387,#927,#928);
#741=AXIS2_PLACEMENT_3D('',#1389,#929,#930);
#742=AXIS2_PLACEMENT_3D('',#1390,#931,#932);
#743=AXIS2_PLACEMENT_3D('',#1391,#933,#934);
#744=AXIS2_PLACEMENT_3D('',#1394,#935,#936);
#745=AXIS2_PLACEMENT_3D('',#1395,#937,#938);
#746=AXIS2_PLACEMENT_3D('',#1396,#939,#940);
#747=AXIS2_PLACEMENT_3D('',#1397,#941,#942);
#748=AXIS2_PLACEMENT_3D('',#1398,#943,#944);
#749=AXIS2_PLACEMENT_3D('',#1399,#945,#946);
#750=AXIS2_PLACEMENT_3D('',#1400,#947,#948);
#751=AXIS2_PLACEMENT_3D('',#1403,#949,#950);
#752=AXIS2_PLACEMENT_3D('',#1404,#951,#952);
#753=AXIS2_PLACEMENT_3D('',#1405,#953,#954);
#754=AXIS2_PLACEMENT_3D('',#1406,#955,#956);
#755=AXIS2_PLACEMENT_3D('',#1407,#957,#958);
#756=AXIS2_PLACEMENT_3D('',#1441,#959,#960);
#757=AXIS2_PLACEMENT_3D('',#1442,#961,#962);
#758=AXIS2_PLACEMENT_3D('',#1476,#963,#964);
#759=AXIS2_PLACEMENT_3D('',#1477,#965,#966);
#760=AXIS2_PLACEMENT_3D('',#1478,#967,#968);
#761=AXIS2_PLACEMENT_3D('',#1479,#969,#970);
#762=AXIS2_PLACEMENT_3D('',#1480,#971,#972);
#763=AXIS2_PLACEMENT_3D('',#1481,#973,#974);
#764=AXIS2_PLACEMENT_3D('',#1482,#975,#976);
#765=DIRECTION('',(0.,0.,1.));
#766=DIRECTION('',(1.,0.,0.));
#767=DIRECTION('',(-1.,0.,0.));
#768=DIRECTION('',(0.,0.,1.));
#769=DIRECTION('',(-1.,0.,0.));
#770=DIRECTION('',(-1.,0.,0.));
#771=DIRECTION('',(0.,0.,1.));
#772=DIRECTION('',(-1.,0.,0.));
#773=DIRECTION('',(-1.,0.,0.));
#774=DIRECTION('',(-1.,0.,0.));
#775=DIRECTION('',(-1.,0.,0.));
#776=DIRECTION('',(-1.,0.,0.));
#777=DIRECTION('',(0.,0.,1.));
#778=DIRECTION('',(-1.,0.,0.));
#779=DIRECTION('',(0.,0.,1.));
#780=DIRECTION('',(-1.,0.,0.));
#781=DIRECTION('',(1.,0.,0.));
#782=DIRECTION('',(0.,0.,-1.));
#783=DIRECTION('',(-1.,0.,0.));
#784=DIRECTION('',(-1.,0.,0.));
#785=DIRECTION('',(-1.,0.,0.));
#786=DIRECTION('',(0.,0.,1.));
#787=DIRECTION('',(-1.,0.,0.));
#788=DIRECTION('',(0.,0.,1.));
#789=DIRECTION('',(-1.,0.,0.));
#790=DIRECTION('',(1.,0.,0.));
#791=DIRECTION('',(0.,0.,-1.));
#792=DIRECTION('',(-1.,0.,0.));
#793=DIRECTION('',(-1.,0.,0.));
#794=DIRECTION('',(1.,0.,0.));
#795=DIRECTION('',(0.,0.,-1.));
#796=DIRECTION('',(-1.,0.,0.));
#797=DIRECTION('',(0.,0.,1.));
#798=DIRECTION('',(0.,1.,0.));
#799=DIRECTION('',(-1.,0.,0.));
#800=DIRECTION('',(0.,0.,1.));
#801=DIRECTION('',(-1.,0.,0.));
#802=DIRECTION('',(0.,0.,1.));
#803=DIRECTION('',(-1.,0.,0.));
#804=DIRECTION('',(-1.,0.,0.));
#805=DIRECTION('',(-1.,0.,0.));
#806=DIRECTION('',(0.,0.,1.));
#807=DIRECTION('',(-1.,0.,0.));
#808=DIRECTION('',(0.,0.,1.));
#809=DIRECTION('',(0.,1.,0.));
#810=DIRECTION('',(-1.,0.,0.));
#811=DIRECTION('',(0.,0.,1.));
#812=DIRECTION('',(0.,1.,0.));
#813=DIRECTION('',(-1.,0.,0.));
#814=DIRECTION('',(0.,0.,1.));
#815=DIRECTION('',(-1.,0.,0.));
#816=DIRECTION('',(0.,0.,1.));
#817=DIRECTION('',(0.,0.,1.));
#818=DIRECTION('',(1.,0.,0.));
#819=DIRECTION('',(0.,0.,1.));
#820=DIRECTION('',(1.,0.,0.));
#821=DIRECTION('',(0.,1.,0.));
#822=DIRECTION('',(0.,0.,1.));
#823=DIRECTION('',(0.,1.,0.));
#824=DIRECTION('',(0.,1.,0.));
#825=DIRECTION('',(0.,1.,0.));
#826=DIRECTION('',(0.,0.,1.));
#827=DIRECTION('',(0.,1.,0.));
#828=DIRECTION('',(0.,1.,0.));
#829=DIRECTION('',(1.,0.,0.));
#830=DIRECTION('',(0.,0.,-1.));
#831=DIRECTION('',(0.,0.,1.));
#832=DIRECTION('',(1.,0.,0.));
#833=DIRECTION('',(0.,0.,1.));
#834=DIRECTION('',(1.,0.,0.));
#835=DIRECTION('',(1.,0.,0.));
#836=DIRECTION('',(0.,0.,-1.));
#837=DIRECTION('',(1.,0.,0.));
#838=DIRECTION('',(0.,0.,-1.));
#839=DIRECTION('',(-1.,0.,0.));
#840=DIRECTION('',(0.,0.,1.));
#841=DIRECTION('',(0.,0.,1.));
#842=DIRECTION('',(1.,0.,0.));
#843=DIRECTION('',(0.,0.,1.));
#844=DIRECTION('',(1.,0.,0.));
#845=DIRECTION('',(-1.,0.,0.));
#846=DIRECTION('',(0.,0.,1.));
#847=DIRECTION('',(0.,0.,1.));
#848=DIRECTION('',(1.,0.,0.));
#849=DIRECTION('',(0.,0.,1.));
#850=DIRECTION('',(1.,0.,0.));
#851=DIRECTION('',(-1.,0.,0.));
#852=DIRECTION('',(0.,0.,1.));
#853=DIRECTION('',(1.,0.,0.));
#854=DIRECTION('',(0.,0.,-1.));
#855=DIRECTION('',(0.,0.,1.));
#856=DIRECTION('',(1.,0.,0.));
#857=DIRECTION('',(0.,0.,1.));
#858=DIRECTION('',(1.,0.,0.));
#859=DIRECTION('',(1.,0.,0.));
#860=DIRECTION('',(0.,0.,-1.));
#861=DIRECTION('',(0.,0.,1.));
#862=DIRECTION('',(1.,0.,0.));
#863=DIRECTION('',(0.,0.,1.));
#864=DIRECTION('',(1.,0.,0.));
#865=DIRECTION('',(0.,0.,1.));
#866=DIRECTION('',(1.,0.,0.));
#867=DIRECTION('',(0.,0.,1.));
#868=DIRECTION('',(1.,0.,0.));
#869=DIRECTION('',(0.,0.,1.));
#870=DIRECTION('',(1.,0.,0.));
#871=DIRECTION('',(0.,0.,1.));
#872=DIRECTION('',(1.,0.,0.));
#873=DIRECTION('',(0.,0.,1.));
#874=DIRECTION('',(1.,0.,0.));
#875=DIRECTION('',(0.,0.,1.));
#876=DIRECTION('',(1.,0.,0.));
#877=DIRECTION('',(0.,0.,1.));
#878=DIRECTION('',(1.,0.,0.));
#879=DIRECTION('',(0.,0.,1.));
#880=DIRECTION('',(1.,0.,0.));
#881=DIRECTION('',(1.,0.,0.));
#882=DIRECTION('',(0.,0.,-1.));
#883=DIRECTION('',(0.,0.,1.));
#884=DIRECTION('',(1.,0.,0.));
#885=DIRECTION('',(1.,0.,0.));
#886=DIRECTION('',(0.,0.,1.));
#887=DIRECTION('',(1.,0.,0.));
#888=DIRECTION('',(1.,0.,0.));
#889=DIRECTION('',(0.,0.,-1.));
#890=DIRECTION('',(1.,0.,0.));
#891=DIRECTION('',(-1.,0.,0.));
#892=DIRECTION('',(0.,0.,1.));
#893=DIRECTION('',(1.,0.,0.));
#894=DIRECTION('',(1.,0.,0.));
#895=DIRECTION('',(0.,0.,1.));
#896=DIRECTION('',(0.,-1.,0.));
#897=DIRECTION('',(-1.,0.,0.));
#898=DIRECTION('',(0.,0.,1.));
#899=DIRECTION('',(1.,0.,0.));
#900=DIRECTION('',(0.,0.,1.));
#901=DIRECTION('',(1.,0.,0.));
#902=DIRECTION('',(1.,0.,0.));
#903=DIRECTION('',(-1.,0.,0.));
#904=DIRECTION('',(0.,0.,1.));
#905=DIRECTION('',(1.,0.,0.));
#906=DIRECTION('',(0.,0.,1.));
#907=DIRECTION('',(0.,-1.,0.));
#908=DIRECTION('',(-1.,0.,0.));
#909=DIRECTION('',(0.,0.,1.));
#910=DIRECTION('',(0.,-1.,0.));
#911=DIRECTION('',(-1.,0.,0.));
#912=DIRECTION('',(0.,0.,1.));
#913=DIRECTION('',(1.,0.,0.));
#914=DIRECTION('',(0.,0.,1.));
#915=DIRECTION('',(0.,0.,1.));
#916=DIRECTION('',(1.,0.,0.));
#917=DIRECTION('',(0.,0.,1.));
#918=DIRECTION('',(1.,0.,0.));
#919=DIRECTION('',(0.,1.,0.));
#920=DIRECTION('',(0.,0.,1.));
#921=DIRECTION('',(0.,1.,0.));
#922=DIRECTION('',(0.,1.,0.));
#923=DIRECTION('',(-1.,0.,0.));
#924=DIRECTION('',(0.,0.,-1.));
#925=DIRECTION('',(0.,0.,1.));
#926=DIRECTION('',(1.,0.,0.));
#927=DIRECTION('',(0.,0.,1.));
#928=DIRECTION('',(1.,0.,0.));
#929=DIRECTION('',(1.,0.,0.));
#930=DIRECTION('',(0.,0.,-1.));
#931=DIRECTION('',(-1.,0.,0.));
#932=DIRECTION('',(0.,0.,-1.));
#933=DIRECTION('',(-1.,0.,0.));
#934=DIRECTION('',(0.,0.,1.));
#935=DIRECTION('',(0.,0.,1.));
#936=DIRECTION('',(1.,0.,0.));
#937=DIRECTION('',(0.,0.,1.));
#938=DIRECTION('',(1.,0.,0.));
#939=DIRECTION('',(1.,0.,0.));
#940=DIRECTION('',(0.,0.,1.));
#941=DIRECTION('',(0.,0.,1.));
#942=DIRECTION('',(1.,0.,0.));
#943=DIRECTION('',(0.,0.,1.));
#944=DIRECTION('',(1.,0.,0.));
#945=DIRECTION('',(1.,0.,0.));
#946=DIRECTION('',(0.,0.,1.));
#947=DIRECTION('',(1.,0.,0.));
#948=DIRECTION('',(0.,0.,-1.));
#949=DIRECTION('',(0.,0.,1.));
#950=DIRECTION('',(1.,0.,0.));
#951=DIRECTION('',(0.,0.,1.));
#952=DIRECTION('',(1.,0.,0.));
#953=DIRECTION('',(-1.,0.,0.));
#954=DIRECTION('',(0.,0.,-1.));
#955=DIRECTION('',(0.,0.,1.));
#956=DIRECTION('',(1.,0.,0.));
#957=DIRECTION('',(0.,0.,1.));
#958=DIRECTION('',(1.,0.,0.));
#959=DIRECTION('',(0.,0.,1.));
#960=DIRECTION('',(1.,0.,0.));
#961=DIRECTION('',(0.,0.,1.));
#962=DIRECTION('',(1.,0.,0.));
#963=DIRECTION('',(0.,0.,1.));
#964=DIRECTION('',(1.,0.,0.));
#965=DIRECTION('',(0.,0.,1.));
#966=DIRECTION('',(1.,0.,0.));
#967=DIRECTION('',(-1.,0.,0.));
#968=DIRECTION('',(0.,0.,-1.));
#969=DIRECTION('',(0.,0.,1.));
#970=DIRECTION('',(1.,0.,0.));
#971=DIRECTION('',(0.,0.,1.));
#972=DIRECTION('',(1.,0.,0.));
#973=DIRECTION('',(0.,0.,1.));
#974=DIRECTION('',(1.,0.,0.));
#975=DIRECTION('',(0.,0.,1.));
#976=DIRECTION('',(1.,0.,0.));
#977=CARTESIAN_POINT('',(0.,0.,0.));
#978=CARTESIAN_POINT('',(-0.00402005889999866,0.,0.));
#979=CARTESIAN_POINT('',(-0.00402005889999866,0.002,0.));
#980=CARTESIAN_POINT('',(-0.026,0.002,0.));
#981=CARTESIAN_POINT('',(0.026,0.002,0.));
#982=CARTESIAN_POINT('',(-0.026,0.,0.));
#983=CARTESIAN_POINT('',(-0.026,-0.002,0.));
#984=CARTESIAN_POINT('',(-0.00402005889999866,-0.002,0.));
#985=CARTESIAN_POINT('',(-0.0224842891544104,-0.002,-1.780504225534E-14));
#986=CARTESIAN_POINT('',(-0.0184842891544104,-0.002,2.93880902834368E-18));
#987=CARTESIAN_POINT('',(-0.0184842891544104,-0.002,-0.000237141401197004));
#988=CARTESIAN_POINT('',(-0.0186522835528128,-0.00190944907840058,-0.000688928221632046));
#989=CARTESIAN_POINT('',(-0.0191608926246068,-0.00166562612098376,-0.00113266167849602));
#990=CARTESIAN_POINT('',(-0.019778420281931,-0.00144176991417757,-0.00139293912001573));
#991=CARTESIAN_POINT('',(-0.0204835308424191,-0.00133848183641425,-0.00148498156536557));
#992=CARTESIAN_POINT('',(-0.0211851787039909,-0.00144048782195601,-0.00139440540030081));
#993=CARTESIAN_POINT('',(-0.0218072329941919,-0.00166529310846395,-0.00113264201666614));
#994=CARTESIAN_POINT('',(-0.0223137128531486,-0.00190818799053186,-0.000693405343980014));
#995=CARTESIAN_POINT('',(-0.0224842891544064,-0.0019999999999979,-0.000235899193597276));
#996=CARTESIAN_POINT('',(-0.0224842891544104,-0.002,-1.78025638113733E-14));
#997=CARTESIAN_POINT('',(-0.0184842891544104,-0.002,2.6401520179799E-18));
#998=CARTESIAN_POINT('',(-0.00402005889999866,-0.002,0.));
#999=CARTESIAN_POINT('',(-0.002,-0.002,0.));
#1000=CARTESIAN_POINT('',(-0.00200000000000001,-0.002,1.31835133545088E-18));
#1001=CARTESIAN_POINT('',(-0.00200000000000001,-0.002,-0.000235933425762169));
#1002=CARTESIAN_POINT('',(-0.00183091979541821,-0.00190936632014773,-0.000690447493303188));
#1003=CARTESIAN_POINT('',(-0.00115705291167001,-0.00158364672718533,-0.00127864741236385));
#1004=CARTESIAN_POINT('',(-0.000237302721715897,-0.00130339199358291,-0.00151431525201089));
#1005=CARTESIAN_POINT('',(0.000703453645453355,-0.00144124391578913,-0.00139392274760674));
#1006=CARTESIAN_POINT('',(0.001321477250573,-0.00166474786658268,-0.00113335540795024));
#1007=CARTESIAN_POINT('',(0.00183073478659541,-0.00190878993699695,-0.000692278884893566));
#1008=CARTESIAN_POINT('',(0.00200000000000001,-0.002,-0.000235032325123259));
#1009=CARTESIAN_POINT('',(0.00200000000000001,-0.002,1.60360219154553E-18));
#1010=CARTESIAN_POINT('',(0.002,-0.002,0.));
#1011=CARTESIAN_POINT('',(-0.00402005889999866,-0.002,0.));
#1012=CARTESIAN_POINT('',(0.0184842891544104,-0.002,1.61051557675971E-19));
#1013=CARTESIAN_POINT('',(0.0184842891544104,-0.002,3.54030639685099E-19));
#1014=CARTESIAN_POINT('',(0.0184842891544104,-0.002,-0.000237141401197777));
#1015=CARTESIAN_POINT('',(0.0186522835528139,-0.00190944907839998,-0.000688928221634119));
#1016=CARTESIAN_POINT('',(0.0191608926246104,-0.00166562612098212,-0.00113266167849846));
#1017=CARTESIAN_POINT('',(0.0197784202819374,-0.00144176991417562,-0.00139293912001766));
#1018=CARTESIAN_POINT('',(0.0204835308424286,-0.00133848183641401,-0.00148498156536577));
#1019=CARTESIAN_POINT('',(0.0211851787040019,-0.00144048782195889,-0.00139440540029812));
#1020=CARTESIAN_POINT('',(0.0218072329942031,-0.00166529310846872,-0.00113264201665952));
#1021=CARTESIAN_POINT('',(0.0223137128531585,-0.00190818799053703,-0.000693405343968122));
#1022=CARTESIAN_POINT('',(0.0224842891544105,-0.00200000000000008,-0.000235899193578984));
#1023=CARTESIAN_POINT('',(0.0224842891544104,-0.002,5.96203764267984E-16));
#1024=CARTESIAN_POINT('',(0.0224842891544104,-0.002,5.93529535572779E-16));
#1025=CARTESIAN_POINT('',(-0.00402005889999866,-0.002,0.));
#1026=CARTESIAN_POINT('',(0.026,-0.002,0.));
#1027=CARTESIAN_POINT('',(0.026,0.,0.));
#1028=CARTESIAN_POINT('',(-0.00402005889999866,0.,0.));
#1029=CARTESIAN_POINT('',(-0.00402005889999866,0.005,0.));
#1030=CARTESIAN_POINT('',(0.027,0.005,0.));
#1031=CARTESIAN_POINT('',(0.011,0.005,0.));
#1032=CARTESIAN_POINT('',(0.027,0.,0.));
#1033=CARTESIAN_POINT('',(0.027,-0.005,0.));
#1034=CARTESIAN_POINT('',(-0.00402005889999866,-0.005,0.));
#1035=CARTESIAN_POINT('',(0.0224842891544104,-0.005,-1.38704154433417E-14));
#1036=CARTESIAN_POINT('',(0.0224842891544104,-0.005,-1.38700246358618E-14));
#1037=CARTESIAN_POINT('',(0.0224842891544074,-0.00499999999999839,-0.00058239378980745));
#1038=CARTESIAN_POINT('',(0.0222033292343714,-0.00482699832502384,-0.00144704600344843));
#1039=CARTESIAN_POINT('',(0.0213507154894577,-0.00449912249763818,-0.00219553671830649));
#1040=CARTESIAN_POINT('',(0.0204867729654097,-0.00436818804125797,-0.00243139882060145));
#1041=CARTESIAN_POINT('',(0.0196178330178661,-0.00449871613779519,-0.00219651024841479));
#1042=CARTESIAN_POINT('',(0.018762887005377,-0.00482826202942374,-0.0014437215372622));
#1043=CARTESIAN_POINT('',(0.0184842891544103,-0.005,-0.000580993839060518));
#1044=CARTESIAN_POINT('',(0.0184842891544103,-0.005,5.95163119875592E-19));
#1045=CARTESIAN_POINT('',(0.0184842891544104,-0.005,7.12459298330671E-19));
#1046=CARTESIAN_POINT('',(-0.00402005889999866,-0.005,0.));
#1047=CARTESIAN_POINT('',(0.011,-0.005,0.));
#1048=CARTESIAN_POINT('',(0.011,0.,0.));
#1049=CARTESIAN_POINT('',(-0.00402005889999866,0.,0.));
#1050=CARTESIAN_POINT('',(-0.00402005889999866,0.005,0.));
#1051=CARTESIAN_POINT('',(0.007,0.005,0.));
#1052=CARTESIAN_POINT('',(-0.007,0.005,0.));
#1053=CARTESIAN_POINT('',(0.007,0.,0.));
#1054=CARTESIAN_POINT('',(0.007,-0.005,0.));
#1055=CARTESIAN_POINT('',(-0.00402005889999866,-0.005,0.));
#1056=CARTESIAN_POINT('',(0.002,-0.005,-4.00337549769778E-16));
#1057=CARTESIAN_POINT('',(0.00200000000000001,-0.00500000000000001,-4.01000092145467E-16));
#1058=CARTESIAN_POINT('',(0.00199999999999993,-0.00499999999999996,-0.00057993798168997));
#1059=CARTESIAN_POINT('',(0.00171900560594108,-0.0048274936121369,-0.00144594892842186));
#1060=CARTESIAN_POINT('',(0.000868914611792814,-0.00449933854948004,-0.00219510004804324));
#1061=CARTESIAN_POINT('',(-4.15076603113469E-6,-0.004367892881144,-0.00243197873693574));
#1062=CARTESIAN_POINT('',(-0.000868343480558281,-0.00449968488078943,-0.00219461946387133));
#1063=CARTESIAN_POINT('',(-0.0017212083406048,-0.0048280832236134,-0.0014432848709938));
#1064=CARTESIAN_POINT('',(-0.002,-0.005,-0.000582885655058665));
#1065=CARTESIAN_POINT('',(-0.002,-0.005,-1.0319696200613E-18));
#1066=CARTESIAN_POINT('',(-0.002,-0.005,-1.04378389254385E-18));
#1067=CARTESIAN_POINT('',(-0.00402005889999866,-0.005,0.));
#1068=CARTESIAN_POINT('',(-0.007,-0.005,0.));
#1069=CARTESIAN_POINT('',(-0.007,0.,0.));
#1070=CARTESIAN_POINT('',(0.036,0.,0.00075));
#1071=CARTESIAN_POINT('',(0.036,0.,0.));
#1072=CARTESIAN_POINT('',(0.036,-0.0015,0.));
#1073=CARTESIAN_POINT('',(0.036,0.0015,0.));
#1074=CARTESIAN_POINT('',(0.036,0.,0.));
#1075=CARTESIAN_POINT('',(-0.00402005889999866,0.,0.));
#1076=CARTESIAN_POINT('',(-0.00402005889999866,0.0015,0.));
#1077=CARTESIAN_POINT('',(0.032,0.0015,0.));
#1078=CARTESIAN_POINT('',(-0.00402005889999866,-0.0015,0.));
#1079=CARTESIAN_POINT('',(0.032,-0.0015,0.));
#1080=CARTESIAN_POINT('',(0.032,0.,0.));
#1081=CARTESIAN_POINT('',(0.03,0.,0.00425));
#1082=CARTESIAN_POINT('',(0.03,0.,0.));
#1083=CARTESIAN_POINT('',(0.03,-0.006,0.));
#1084=CARTESIAN_POINT('',(0.03,-0.0035,0.));
#1085=CARTESIAN_POINT('',(0.03,0.,0.));
#1086=CARTESIAN_POINT('',(0.03,0.006,0.));
#1087=CARTESIAN_POINT('',(0.03,0.,0.));
#1088=CARTESIAN_POINT('',(0.03,0.0035,0.));
#1089=CARTESIAN_POINT('',(0.03,0.,0.));
#1090=CARTESIAN_POINT('',(0.032,0.,0.));
#1091=CARTESIAN_POINT('',(0.032,0.0035,0.));
#1092=CARTESIAN_POINT('',(0.032,-0.0035,0.));
#1093=CARTESIAN_POINT('',(0.,-0.025,7.65404249467096E-20));
#1094=CARTESIAN_POINT('',(-0.00125000000000001,-0.00425000000000001,-2.33344587648003E-18));
#1095=CARTESIAN_POINT('',(-0.00125000000000001,-0.00425000000000001,-0.00034135450946283));
#1096=CARTESIAN_POINT('',(-0.00103584170852209,-0.00407531644054325,-0.000816460796772782));
#1097=CARTESIAN_POINT('',(-0.000509860325092679,-0.00381527640879582,-0.00117581757088626));
#1098=CARTESIAN_POINT('',(-4.48000849908851E-6,-0.00371776457238866,-0.00128664011570721));
#1099=CARTESIAN_POINT('',(0.000506836436965921,-0.00381369025582587,-0.00117759272303629));
#1100=CARTESIAN_POINT('',(0.00103393753933012,-0.00407416998771002,-0.00081958716652624));
#1101=CARTESIAN_POINT('',(0.00125,-0.00425,-0.000338964252827097));
#1102=CARTESIAN_POINT('',(0.00125,-0.00425,8.68201795220888E-19));
#1103=CARTESIAN_POINT('',(-0.00125,-0.00425,0.));
#1104=CARTESIAN_POINT('',(0.00125,-0.00425,0.));
#1105=CARTESIAN_POINT('',(0.00125,-0.025,0.));
#1106=CARTESIAN_POINT('',(0.00125,-0.00275,2.10486980774902E-19));
#1107=CARTESIAN_POINT('',(0.00125,-0.00275,2.93404850375203E-19));
#1108=CARTESIAN_POINT('',(0.00125,-0.00275,-0.000183560196835206));
#1109=CARTESIAN_POINT('',(0.00116561731594112,-0.00264958742581126,-0.000537163393004257));
#1110=CARTESIAN_POINT('',(0.000888862646474712,-0.0023540487114558,-0.000913168852395911));
#1111=CARTESIAN_POINT('',(0.000528600546546201,-0.00203390170262504,-0.00116655748428587));
#1112=CARTESIAN_POINT('',(3.74454402023183E-6,-0.00181472539713485,-0.00129140135371611));
#1113=CARTESIAN_POINT('',(-0.000527259835279403,-0.00203197846141587,-0.00116781934708972));
#1114=CARTESIAN_POINT('',(-0.000887322970534294,-0.00235275617272414,-0.00091440195374758));
#1115=CARTESIAN_POINT('',(-0.00116604615565197,-0.00264994441355468,-0.000537889679324841));
#1116=CARTESIAN_POINT('',(-0.00125,-0.00275,-0.000181101054086692));
#1117=CARTESIAN_POINT('',(-0.00125,-0.00275,9.75832433538772E-20));
#1118=CARTESIAN_POINT('',(-0.00125,-0.00275,-1.49546983598111E-19));
#1119=CARTESIAN_POINT('',(-0.00125,-0.025,0.));
#1120=CARTESIAN_POINT('',(0.0204842891544104,-0.025,7.65404249467096E-20));
#1121=CARTESIAN_POINT('',(0.0192342891544103,-0.00425000000000006,1.14575668335179E-17));
#1122=CARTESIAN_POINT('',(0.0192342891544103,-0.00425000000000007,-0.00033932309039729));
#1123=CARTESIAN_POINT('',(0.0194495280861754,-0.00407449474915693,-0.000818782751013566));
#1124=CARTESIAN_POINT('',(0.0199770978689382,-0.00381412294103777,-0.00117709167650054));
#1125=CARTESIAN_POINT('',(0.0204842271463789,-0.00371785701737739,-0.00128654499232411));
#1126=CARTESIAN_POINT('',(0.020992440750029,-0.00381444901831768,-0.00117672832038038));
#1127=CARTESIAN_POINT('',(0.0215179828170093,-0.00407402209791938,-0.000819053147246194));
#1128=CARTESIAN_POINT('',(0.0217342891544105,-0.00425000000000008,-0.000341510619834036));
#1129=CARTESIAN_POINT('',(0.0217342891544104,-0.00425,3.64314613276703E-16));
#1130=CARTESIAN_POINT('',(0.0192342891544104,-0.00425,0.));
#1131=CARTESIAN_POINT('',(0.0217342891544104,-0.00425,3.64355554794379E-16));
#1132=CARTESIAN_POINT('',(0.0217342891544104,-0.025,0.));
#1133=CARTESIAN_POINT('',(0.0217342891544104,-0.00275,1.12824189383602E-14));
#1134=CARTESIAN_POINT('',(0.0217342891544104,-0.00275,1.12824324386046E-14));
#1135=CARTESIAN_POINT('',(0.021734289154412,-0.00275000000000193,-0.000183918261609541));
#1136=CARTESIAN_POINT('',(0.0216491445170534,-0.00264857211655468,-0.000539606061056731));
#1137=CARTESIAN_POINT('',(0.0213708086008833,-0.00235203138525758,-0.000915231414253645));
#1138=CARTESIAN_POINT('',(0.0210096198175876,-0.00203022018439959,-0.00116896931034896));
#1139=CARTESIAN_POINT('',(0.0204760229509834,-0.00181437210302271,-0.00129163262101021));
#1140=CARTESIAN_POINT('',(0.0199514432432548,-0.00203722918073382,-0.00116439042204626));
#1141=CARTESIAN_POINT('',(0.0195941590430583,-0.00235538360665901,-0.000911595251606789));
#1142=CARTESIAN_POINT('',(0.0193174356654441,-0.00265098397462718,-0.000535263286779662));
#1143=CARTESIAN_POINT('',(0.0192342891544137,-0.00274999999999607,-0.000180705223093512));
#1144=CARTESIAN_POINT('',(0.0192342891544103,-0.00275000000000007,-2.37839659179652E-14));
#1145=CARTESIAN_POINT('',(0.0192342891544104,-0.00275,-2.3791736985334E-14));
#1146=CARTESIAN_POINT('',(0.0192342891544104,-0.025,0.));
#1147=CARTESIAN_POINT('',(0.007,0.,0.));
#1148=CARTESIAN_POINT('',(0.007,-0.006,0.));
#1149=CARTESIAN_POINT('',(0.008,-0.006,0.));
#1150=CARTESIAN_POINT('',(0.007,0.006,0.));
#1151=CARTESIAN_POINT('',(0.008,0.006,0.));
#1152=CARTESIAN_POINT('',(0.008,0.,0.));
#1153=CARTESIAN_POINT('',(0.009,0.,0.));
#1154=CARTESIAN_POINT('',(0.01,0.,0.));
#1155=CARTESIAN_POINT('',(0.01,-0.006,0.));
#1156=CARTESIAN_POINT('',(0.01,0.006,0.));
#1157=CARTESIAN_POINT('',(0.009,-0.006,0.));
#1158=CARTESIAN_POINT('',(0.009,0.006,0.));
#1159=CARTESIAN_POINT('',(0.011,0.,0.));
#1160=CARTESIAN_POINT('',(0.011,0.006,0.));
#1161=CARTESIAN_POINT('',(0.011,-0.006,0.));
#1162=CARTESIAN_POINT('',(0.029,0.,0.));
#1163=CARTESIAN_POINT('',(0.028,0.,0.));
#1164=CARTESIAN_POINT('',(0.028,0.006,0.));
#1165=CARTESIAN_POINT('',(0.028,-0.006,0.));
#1166=CARTESIAN_POINT('',(0.029,0.006,0.));
#1167=CARTESIAN_POINT('',(0.029,-0.006,0.));
#1168=CARTESIAN_POINT('',(0.027,0.,0.));
#1169=CARTESIAN_POINT('',(0.027,-0.006,0.));
#1170=CARTESIAN_POINT('',(0.027,0.006,0.));
#1171=CARTESIAN_POINT('',(-0.00125,-0.00275,9.73832045973296E-19));
#1172=CARTESIAN_POINT('',(-0.00125,-0.002,5.6141194999441E-19));
#1173=CARTESIAN_POINT('',(-0.002,-0.002,1.09978692261036E-18));
#1174=CARTESIAN_POINT('',(-0.00125,-0.00275000000449123,-0.000170415257238841));
#1175=CARTESIAN_POINT('',(-0.00125000000057749,-0.0019999999999599,-9.60521544096121E-5));
#1176=CARTESIAN_POINT('',(-0.00200000000618752,-0.002,-0.000198301390241561));
#1177=CARTESIAN_POINT('',(-0.0011766614163194,-0.00266276475615353,-0.000513133042522265));
#1178=CARTESIAN_POINT('',(-0.00125318852529506,-0.00200993094094464,-0.000293388474322133));
#1179=CARTESIAN_POINT('',(-0.00188265826324114,-0.00193655618781053,-0.000597100267662174));
#1180=CARTESIAN_POINT('',(-0.000896276624741109,-0.00235925224880223,-0.000912113176891499));
#1181=CARTESIAN_POINT('',(-0.00107018500177726,-0.0019090538582912,-0.000746649000458538));
#1182=CARTESIAN_POINT('',(-0.001434042600348,-0.00171581981690065,-0.00106136806038286));
#1183=CARTESIAN_POINT('',(-0.000504523186963294,-0.00201577031368988,-0.00117846837195889));
#1184=CARTESIAN_POINT('',(-0.000643851128112346,-0.00168857922233185,-0.00113516797156555));
#1185=CARTESIAN_POINT('',(-0.000807237098962261,-0.00146601477371585,-0.0013713086510067));
#1186=CARTESIAN_POINT('',(4.3630377085364E-6,-0.0018221930444446,-0.00128645596656652));
#1187=CARTESIAN_POINT('',(5.67209461313831E-6,-0.00154092793810184,-0.00130632417499088));
#1188=CARTESIAN_POINT('',(6.98086037984493E-6,-0.00132523130496785,-0.00149696694291377));
#1189=CARTESIAN_POINT('',(0.000510241965421658,-0.00202026984443507,-0.00117567196889199));
#1190=CARTESIAN_POINT('',(0.000650679915819853,-0.00169186972964896,-0.00113079192927249));
#1191=CARTESIAN_POINT('',(0.000816387144310896,-0.00146928715979699,-0.00136805465471068));
#1192=CARTESIAN_POINT('',(0.000899442948416727,-0.00236251471593949,-0.000908559180266734));
#1193=CARTESIAN_POINT('',(0.00107258797398585,-0.00191038515181405,-0.00074236450651487));
#1194=CARTESIAN_POINT('',(0.0014391087188756,-0.00171819251993465,-0.00105723250067402));
#1195=CARTESIAN_POINT('',(0.00117635493228494,-0.0026625002483147,-0.000512256990817217));
#1196=CARTESIAN_POINT('',(0.00125264626384463,-0.00200960978925645,-0.00029343396300423));
#1197=CARTESIAN_POINT('',(0.0018821678863843,-0.00193636381974275,-0.000596080862041852));
#1198=CARTESIAN_POINT('',(0.00125,-0.00275000000825413,-0.00017158089875638));
#1199=CARTESIAN_POINT('',(0.00125000000098982,-0.001999999999875,-9.67091519665487E-5));
#1200=CARTESIAN_POINT('',(0.00200000001136119,-0.002,-0.000199657773098333));
#1201=CARTESIAN_POINT('',(0.00125,-0.00275,1.88340835360287E-18));
#1202=CARTESIAN_POINT('',(0.00125,-0.002,1.07408223247653E-18));
#1203=CARTESIAN_POINT('',(0.002,-0.002,2.15820298967022E-18));
#1204=CARTESIAN_POINT('',(0.002,-0.00275,2.90930390867642E-19));
#1205=CARTESIAN_POINT('',(-0.002,-0.00275,1.0096567849292E-18));
#1206=CARTESIAN_POINT('',(0.00125,-0.00425,-9.1765477442699E-20));
#1207=CARTESIAN_POINT('',(0.00125,-0.005,-1.25780010185583E-19));
#1208=CARTESIAN_POINT('',(0.002,-0.005,-2.26763551619228E-19));
#1209=CARTESIAN_POINT('',(0.00125,-0.00424999999750116,-0.000165817008532447));
#1210=CARTESIAN_POINT('',(0.00124999999479436,-0.00499999999891873,-0.000212635966256495));
#1211=CARTESIAN_POINT('',(0.00199999999471035,-0.005,-0.000312126133708136));
#1212=CARTESIAN_POINT('',(0.00118225001815239,-0.00419743888155708,-0.000497561966708625));
#1213=CARTESIAN_POINT('',(0.00113550364320096,-0.00497443027616015,-0.000652369288116114));
#1214=CARTESIAN_POINT('',(0.00189160003149668,-0.00493816338870163,-0.000936587231451524));
#1215=CARTESIAN_POINT('',(0.000904994112701927,-0.00400912492845225,-0.000906889939536578));
#1216=CARTESIAN_POINT('',(0.000710147861183473,-0.00491724314901782,-0.00110929037647878));
#1217=CARTESIAN_POINT('',(0.00144799057967256,-0.00471661756325462,-0.00170708694501005));
#1218=CARTESIAN_POINT('',(0.000497197744747213,-0.00381070272680542,-0.00118205294752703));
#1219=CARTESIAN_POINT('',(0.000235252747675084,-0.00495008275337902,-0.00126842087452465));
#1220=CARTESIAN_POINT('',(0.000795516391744792,-0.00448317967848168,-0.00222504084240374));
#1221=CARTESIAN_POINT('',(3.54270418792906E-7,-0.00371962634840757,-0.00128399917673718));
#1222=CARTESIAN_POINT('',(1.80807708329219E-7,-0.00502695877167512,-0.00124004511309141));
#1223=CARTESIAN_POINT('',(5.6683272348809E-7,-0.00437603099820862,-0.00241693962679942));
#1224=CARTESIAN_POINT('',(-0.000497804410046741,-0.0038107919169275,-0.00118195030173928));
#1225=CARTESIAN_POINT('',(-0.000235545862658877,-0.00494999509794422,-0.00126847670700997));
#1226=CARTESIAN_POINT('',(-0.000796487056437714,-0.00448328460793466,-0.00222484762680334));
#1227=CARTESIAN_POINT('',(-0.000905526634613541,-0.00400949433631166,-0.00090635868809046));
#1228=CARTESIAN_POINT('',(-0.000710992782773264,-0.00491730325557778,-0.00110881328460375));
#1229=CARTESIAN_POINT('',(-0.00144884261398337,-0.00471705216114594,-0.00170608694228793));
#1230=CARTESIAN_POINT('',(-0.00118207900577576,-0.00419732001522485,-0.000497226385462511));
#1231=CARTESIAN_POINT('',(-0.00113528288649889,-0.00497441350250699,-0.000651818720633123));
#1232=CARTESIAN_POINT('',(-0.00189132641447146,-0.00493802354442153,-0.000935955549105903));
#1233=CARTESIAN_POINT('',(-0.00125,-0.00424999999468632,-0.000167059296267463));
#1234=CARTESIAN_POINT('',(-0.00124999998894392,-0.00499999999771878,-0.000214229018163475));
#1235=CARTESIAN_POINT('',(-0.00199999998872828,-0.005,-0.000314464557679929));
#1236=CARTESIAN_POINT('',(-0.00125,-0.00425,-2.48933508971031E-18));
#1237=CARTESIAN_POINT('',(-0.00125,-0.005,-3.20031045415229E-18));
#1238=CARTESIAN_POINT('',(-0.002,-0.005,-4.7398357629465E-18));
#1239=CARTESIAN_POINT('',(-0.002,-0.00425,-8.87218374594317E-19));
#1240=CARTESIAN_POINT('',(0.002,-0.00425,-3.40177253947693E-16));
#1241=CARTESIAN_POINT('',(0.0217342891544104,-0.00425,3.64674909434106E-16));
#1242=CARTESIAN_POINT('',(0.0217342891544104,-0.005,4.676338384058E-16));
#1243=CARTESIAN_POINT('',(0.0224842891544104,-0.005,6.86392859811296E-16));
#1244=CARTESIAN_POINT('',(0.0217342891544104,-0.00425000000514932,-0.000166736755734681));
#1245=CARTESIAN_POINT('',(0.0217342891650989,-0.00500000000218066,-0.000213815406198376));
#1246=CARTESIAN_POINT('',(0.0224842891653738,-0.00500000000000005,-0.0003138574225594));
#1247=CARTESIAN_POINT('',(0.0216661353912197,-0.00419713586726375,-0.000498381905200756));
#1248=CARTESIAN_POINT('',(0.021619115654499,-0.0049742863388858,-0.000653424647843141));
#1249=CARTESIAN_POINT('',(0.0223752431282183,-0.00493780690547548,-0.00093813064508364));
#1250=CARTESIAN_POINT('',(0.0213886701791218,-0.00400875451202708,-0.000907474397037909));
#1251=CARTESIAN_POINT('',(0.0211936342326298,-0.00491723920343997,-0.00110972686792422));
#1252=CARTESIAN_POINT('',(0.0219312987953074,-0.00471618177809946,-0.00170818710030669));
#1253=CARTESIAN_POINT('',(0.0209812848697931,-0.00381076235880861,-0.00118194711701119));
#1254=CARTESIAN_POINT('',(0.0207196406613876,-0.00495009934067655,-0.00126829144376007));
#1255=CARTESIAN_POINT('',(0.0212794822986748,-0.00448324983410394,-0.00222484163202107));
#1256=CARTESIAN_POINT('',(0.0204857457586936,-0.00371965539689747,-0.00128397141109366));
#1257=CARTESIAN_POINT('',(0.0204848834287715,-0.00502692503073688,-0.00124007503917783));
#1258=CARTESIAN_POINT('',(0.0204866197212967,-0.00437606517273067,-0.00241688736205864));
#1259=CARTESIAN_POINT('',(0.0199867693174505,-0.00381061765299492,-0.00118216536432473));
#1260=CARTESIAN_POINT('',(0.0202490640840828,-0.00495009510040528,-0.00126849805639351));
#1261=CARTESIAN_POINT('',(0.0196882574154902,-0.0044830795919068,-0.00222525245049367));
#1262=CARTESIAN_POINT('',(0.0195789791993742,-0.0040093695224938,-0.00090655447811117));
#1263=CARTESIAN_POINT('',(0.0197736396272645,-0.0049172539626853,-0.001109050760704));
#1264=CARTESIAN_POINT('',(0.0190357932254568,-0.0047169053200785,-0.00170645548820904));
#1265=CARTESIAN_POINT('',(0.019301986157039,-0.00419747014936568,-0.000497154842341908));
#1266=CARTESIAN_POINT('',(0.019348685600005,-0.00497446476600481,-0.000651790151222725));
#1267=CARTESIAN_POINT('',(0.018592604361984,-0.00493820017758596,-0.000935820879702479));
#1268=CARTESIAN_POINT('',(0.0192342891544103,-0.00425000000340757,-0.000166192433218539));
#1269=CARTESIAN_POINT('',(0.0192342891473438,-0.00500000000143839,-0.000213117392678781));
#1270=CARTESIAN_POINT('',(0.0184842891471494,-0.00500000000000005,-0.00031283281547019));
#1271=CARTESIAN_POINT('',(0.0192342891544104,-0.00425,4.01021907416314E-16));
#1272=CARTESIAN_POINT('',(0.0192342891544104,-0.005,5.1424351817122E-16));
#1273=CARTESIAN_POINT('',(0.0184842891544104,-0.005,7.5481073836604E-16));
#1274=CARTESIAN_POINT('',(0.0184842891544104,-0.00425,6.42355575721616E-16));
#1275=CARTESIAN_POINT('',(0.0224842891544104,-0.00425,-1.52975800414631E-19));
#1276=CARTESIAN_POINT('',(0.0192342891544103,-0.00275,1.02449355461648E-18));
#1277=CARTESIAN_POINT('',(0.0192342891544103,-0.002,5.89966618502389E-19));
#1278=CARTESIAN_POINT('',(0.0184842891544103,-0.002,1.15873849630425E-18));
#1279=CARTESIAN_POINT('',(0.0192342891544103,-0.0027500000067468,-0.000170514500076174));
#1280=CARTESIAN_POINT('',(0.0192342891535841,-0.00199999999990889,-9.61080913341383E-5));
#1281=CARTESIAN_POINT('',(0.01848428914512,-0.002,-0.000198416872815911));
#1282=CARTESIAN_POINT('',(0.0193072576851734,-0.00266314565727277,-0.00051196911309787));
#1283=CARTESIAN_POINT('',(0.0192309726722541,-0.00200993503585651,-0.00029262704296976));
#1284=CARTESIAN_POINT('',(0.0186010388079407,-0.00193683320756768,-0.00059574587705934));
#1285=CARTESIAN_POINT('',(0.0195870459183034,-0.00236044349350472,-0.00091077462619573));
#1286=CARTESIAN_POINT('',(0.0194135961251821,-0.00190947340770841,-0.000745039329257809));
#1287=CARTESIAN_POINT('',(0.0190486999754916,-0.0017166861764801,-0.00105981047411867));
#1288=CARTESIAN_POINT('',(0.0199753164300201,-0.00201892483634273,-0.00117640649281295));
#1289=CARTESIAN_POINT('',(0.0198351669956921,-0.00169080530486601,-0.00113208532597872));
#1290=CARTESIAN_POINT('',(0.019669932795667,-0.00146830897206417,-0.00136890937345507));
#1291=CARTESIAN_POINT('',(0.0204853278396633,-0.00182186639262916,-0.00128670133439324));
#1292=CARTESIAN_POINT('',(0.0204854974482591,-0.00154072478927175,-0.0013066232915547));
#1293=CARTESIAN_POINT('',(0.0204859510508384,-0.00132499373999397,-0.00149725246183941));
#1294=CARTESIAN_POINT('',(0.0209919464754761,-0.00201836215725037,-0.00117678763215817));
#1295=CARTESIAN_POINT('',(0.0211319480212845,-0.00169048426653909,-0.00113263893469274));
#1296=CARTESIAN_POINT('',(0.0212965408677412,-0.00146789975094885,-0.00136935288105678));
#1297=CARTESIAN_POINT('',(0.0213830458472357,-0.00236167135660464,-0.000909959497254831));
#1298=CARTESIAN_POINT('',(0.0215566418005803,-0.00191021143455405,-0.000743585761904812));
#1299=CARTESIAN_POINT('',(0.021922299864405,-0.00171757916765448,-0.00105886196044199));
#1300=CARTESIAN_POINT('',(0.0216616407120727,-0.00266363486558628,-0.000509838828569354));
#1301=CARTESIAN_POINT('',(0.0217374189906966,-0.00200986341576152,-0.000291283712210126));
#1302=CARTESIAN_POINT('',(0.0223680516411481,-0.00193718899607341,-0.000593267000517066));
#1303=CARTESIAN_POINT('',(0.0217342891544119,-0.0027500000086495,-0.000171933209102532));
#1304=CARTESIAN_POINT('',(0.0217342891554424,-0.00199999999986612,-9.69077267385986E-5));
#1305=CARTESIAN_POINT('',(0.0224842891663148,-0.00200000000000131,-0.000200067734228401));
#1306=CARTESIAN_POINT('',(0.0217342891544104,-0.00275,1.1281771169978E-14));
#1307=CARTESIAN_POINT('',(0.0217342891544104,-0.002,6.35882900242079E-15));
#1308=CARTESIAN_POINT('',(0.0224842891544104,-0.002,1.31278457801526E-14));
#1309=CARTESIAN_POINT('',(0.0224842891544104,-0.00275,8.71016049369762E-19));
#1310=CARTESIAN_POINT('',(0.0184842891544104,-0.00275,2.51056107838155E-19));
#1311=CARTESIAN_POINT('',(0.026,0.,0.));
#1312=CARTESIAN_POINT('',(0.026,0.,0.));
#1313=CARTESIAN_POINT('',(0.00402005889999866,0.,0.));
#1314=CARTESIAN_POINT('',(0.00402005889999866,-0.005,0.));
#1315=CARTESIAN_POINT('',(-0.027,-0.005,0.));
#1316=CARTESIAN_POINT('',(-0.0224842891544104,-0.005,-1.38699817057966E-14));
#1317=CARTESIAN_POINT('',(-0.027,0.,0.));
#1318=CARTESIAN_POINT('',(-0.027,0.005,0.));
#1319=CARTESIAN_POINT('',(0.00402005889999866,0.005,0.));
#1320=CARTESIAN_POINT('',(-0.011,0.005,0.));
#1321=CARTESIAN_POINT('',(-0.011,0.,0.));
#1322=CARTESIAN_POINT('',(-0.011,-0.005,0.));
#1323=CARTESIAN_POINT('',(0.00402005889999866,-0.005,0.));
#1324=CARTESIAN_POINT('',(-0.0184842891544104,-0.005,7.12459298330671E-19));
#1325=CARTESIAN_POINT('',(-0.0224842891544104,-0.005,-1.38695909549799E-14));
#1326=CARTESIAN_POINT('',(-0.0224842891544074,-0.00499999999999839,-0.00058239378980745));
#1327=CARTESIAN_POINT('',(-0.0222033292343714,-0.00482699832502384,-0.00144704600344843));
#1328=CARTESIAN_POINT('',(-0.0213507154894577,-0.00449912249763818,-0.00219553671830648));
#1329=CARTESIAN_POINT('',(-0.0204867729654097,-0.00436818804125797,-0.00243139882060145));
#1330=CARTESIAN_POINT('',(-0.0196178330178662,-0.00449871613779519,-0.0021965102484148));
#1331=CARTESIAN_POINT('',(-0.0187628870053769,-0.00482826202942374,-0.00144372153726219));
#1332=CARTESIAN_POINT('',(-0.0184842891544103,-0.005,-0.000580993839060518));
#1333=CARTESIAN_POINT('',(-0.0184842891544103,-0.005,5.95163119875592E-19));
#1334=CARTESIAN_POINT('',(-0.036,0.,0.00075));
#1335=CARTESIAN_POINT('',(-0.036,0.,0.));
#1336=CARTESIAN_POINT('',(-0.036,0.0015,0.));
#1337=CARTESIAN_POINT('',(-0.036,-0.0015,0.));
#1338=CARTESIAN_POINT('',(-0.036,0.,0.));
#1339=CARTESIAN_POINT('',(0.00402005889999866,0.,0.));
#1340=CARTESIAN_POINT('',(0.00402005889999866,-0.0015,0.));
#1341=CARTESIAN_POINT('',(-0.032,-0.0015,0.));
#1342=CARTESIAN_POINT('',(0.00402005889999866,0.0015,0.));
#1343=CARTESIAN_POINT('',(-0.032,0.0015,0.));
#1344=CARTESIAN_POINT('',(-0.032,0.,0.));
#1345=CARTESIAN_POINT('',(-0.03,0.,0.00425));
#1346=CARTESIAN_POINT('',(-0.03,0.,0.));
#1347=CARTESIAN_POINT('',(-0.03,0.006,0.));
#1348=CARTESIAN_POINT('',(-0.03,0.0035,0.));
#1349=CARTESIAN_POINT('',(-0.03,0.,0.));
#1350=CARTESIAN_POINT('',(-0.03,-0.006,0.));
#1351=CARTESIAN_POINT('',(-0.03,0.,0.));
#1352=CARTESIAN_POINT('',(-0.03,-0.0035,0.));
#1353=CARTESIAN_POINT('',(-0.03,0.,0.));
#1354=CARTESIAN_POINT('',(-0.032,0.,0.));
#1355=CARTESIAN_POINT('',(-0.032,-0.0035,0.));
#1356=CARTESIAN_POINT('',(-0.032,0.0035,0.));
#1357=CARTESIAN_POINT('',(-0.0204842891544104,-0.025,7.65404249467096E-20));
#1358=CARTESIAN_POINT('',(-0.0192342891544103,-0.00425000000000006,1.14575694184573E-17));
#1359=CARTESIAN_POINT('',(-0.0192342891544103,-0.00425000000000007,-0.00033932309039729));
#1360=CARTESIAN_POINT('',(-0.0194495280861754,-0.00407449474915693,-0.000818782751013566));
#1361=CARTESIAN_POINT('',(-0.0199770978689382,-0.00381412294103777,-0.00117709167650054));
#1362=CARTESIAN_POINT('',(-0.0204842271463789,-0.00371785701737739,-0.00128654499232411));
#1363=CARTESIAN_POINT('',(-0.020992440750029,-0.00381444901831768,-0.00117672832038038));
#1364=CARTESIAN_POINT('',(-0.0215179828170093,-0.00407402209791938,-0.000819053147246194));
#1365=CARTESIAN_POINT('',(-0.0217342891544105,-0.00425000000000008,-0.000341510619834036));
#1366=CARTESIAN_POINT('',(-0.0217342891544104,-0.00425,3.64314613276703E-16));
#1367=CARTESIAN_POINT('',(-0.0192342891544104,-0.00425,0.));
#1368=CARTESIAN_POINT('',(-0.0217342891544104,-0.00425,3.6435555644874E-16));
#1369=CARTESIAN_POINT('',(-0.0192342891544104,-0.025,0.));
#1370=CARTESIAN_POINT('',(-0.0192342891544104,-0.00275,1.67106341732804E-19));
#1371=CARTESIAN_POINT('',(-0.0217342891544104,-0.00275,-1.12829723597859E-14));
#1372=CARTESIAN_POINT('',(-0.0217342891544087,-0.00274999999999807,-0.000183918261632171));
#1373=CARTESIAN_POINT('',(-0.0216491445170442,-0.00264857211654403,-0.000539606061075395));
#1374=CARTESIAN_POINT('',(-0.0213708086008698,-0.00235203138524454,-0.000915231414266425));
#1375=CARTESIAN_POINT('',(-0.0210096198175702,-0.00203022018438578,-0.00116896931035765));
#1376=CARTESIAN_POINT('',(-0.0204760229509571,-0.00181437210302302,-0.00129163262101004));
#1377=CARTESIAN_POINT('',(-0.0199514432432374,-0.00203722918074765,-0.0011643904220375));
#1378=CARTESIAN_POINT('',(-0.0195941590430443,-0.00235538360667248,-0.000911595251593517));
#1379=CARTESIAN_POINT('',(-0.0193174356654345,-0.00265098397463832,-0.000535263286760184));
#1380=CARTESIAN_POINT('',(-0.0192342891544103,-0.00275000000000007,-0.000180705223069306));
#1381=CARTESIAN_POINT('',(-0.0192342891544103,-0.00275000000000007,8.48946293559318E-18));
#1382=CARTESIAN_POINT('',(-0.0217342891544104,-0.00275,-1.12829876450722E-14));
#1383=CARTESIAN_POINT('',(-0.0217342891544104,-0.025,0.));
#1384=CARTESIAN_POINT('',(-0.007,0.,0.));
#1385=CARTESIAN_POINT('',(-0.007,0.006,0.));
#1386=CARTESIAN_POINT('',(-0.008,0.006,0.));
#1387=CARTESIAN_POINT('',(-0.007,-0.006,0.));
#1388=CARTESIAN_POINT('',(-0.008,-0.006,0.));
#1389=CARTESIAN_POINT('',(-0.008,0.,0.));
#1390=CARTESIAN_POINT('',(-0.009,0.,0.));
#1391=CARTESIAN_POINT('',(-0.01,0.,0.));
#1392=CARTESIAN_POINT('',(-0.01,-0.006,0.));
#1393=CARTESIAN_POINT('',(-0.01,0.006,0.));
#1394=CARTESIAN_POINT('',(-0.009,0.006,0.));
#1395=CARTESIAN_POINT('',(-0.009,-0.006,0.));
#1396=CARTESIAN_POINT('',(-0.011,0.,0.));
#1397=CARTESIAN_POINT('',(-0.011,-0.006,0.));
#1398=CARTESIAN_POINT('',(-0.011,0.006,0.));
#1399=CARTESIAN_POINT('',(-0.029,0.,0.));
#1400=CARTESIAN_POINT('',(-0.028,0.,0.));
#1401=CARTESIAN_POINT('',(-0.028,0.006,0.));
#1402=CARTESIAN_POINT('',(-0.028,-0.006,0.));
#1403=CARTESIAN_POINT('',(-0.029,-0.006,0.));
#1404=CARTESIAN_POINT('',(-0.029,0.006,0.));
#1405=CARTESIAN_POINT('',(-0.027,0.,0.));
#1406=CARTESIAN_POINT('',(-0.027,0.006,0.));
#1407=CARTESIAN_POINT('',(-0.027,-0.006,0.));
#1408=CARTESIAN_POINT('',(-0.0224842891544104,-0.005,6.86392859811296E-16));
#1409=CARTESIAN_POINT('',(-0.0217342891544104,-0.005,4.676338384058E-16));
#1410=CARTESIAN_POINT('',(-0.0217342891544104,-0.00425,3.64674909434106E-16));
#1411=CARTESIAN_POINT('',(-0.0224842891653738,-0.00500000000000005,-0.000313857422559368));
#1412=CARTESIAN_POINT('',(-0.0217342891650989,-0.00500000000218066,-0.000213815406198354));
#1413=CARTESIAN_POINT('',(-0.0217342891544104,-0.00425000000514932,-0.000166736755734665));
#1414=CARTESIAN_POINT('',(-0.0223752431282183,-0.00493780690547549,-0.000938130645083549));
#1415=CARTESIAN_POINT('',(-0.021619115654499,-0.00497428633888581,-0.000653424647843073));
#1416=CARTESIAN_POINT('',(-0.0216661353912197,-0.00419713586726376,-0.000498381905200706));
#1417=CARTESIAN_POINT('',(-0.0219312987953075,-0.00471618177809951,-0.00170818710030655));
#1418=CARTESIAN_POINT('',(-0.0211936342326299,-0.00491723920343998,-0.00110972686792414));
#1419=CARTESIAN_POINT('',(-0.0213886701791219,-0.00400875451202712,-0.000907474397037834));
#1420=CARTESIAN_POINT('',(-0.021279482298675,-0.004483249834104,-0.00222484163202094));
#1421=CARTESIAN_POINT('',(-0.0207196406613877,-0.00495009934067652,-0.00126829144376006));
#1422=CARTESIAN_POINT('',(-0.0209812848697932,-0.00381076235880867,-0.00118194711701113));
#1423=CARTESIAN_POINT('',(-0.020486619721297,-0.00437606517273068,-0.00241688736205862));
#1424=CARTESIAN_POINT('',(-0.0204848834287715,-0.00502692503073687,-0.00124007503917784));
#1425=CARTESIAN_POINT('',(-0.0204857457586938,-0.00371965539689748,-0.00128397141109365));
#1426=CARTESIAN_POINT('',(-0.0196882574154906,-0.00448307959190671,-0.00222525245049384));
#1427=CARTESIAN_POINT('',(-0.020249064084083,-0.00495009510040532,-0.00126849805639351));
#1428=CARTESIAN_POINT('',(-0.0199867693174507,-0.00381061765299483,-0.00118216536432482));
#1429=CARTESIAN_POINT('',(-0.0190357932254571,-0.00471690532007835,-0.00170645548820945));
#1430=CARTESIAN_POINT('',(-0.0197736396272648,-0.00491725396268531,-0.00110905076070419));
#1431=CARTESIAN_POINT('',(-0.0195789791993744,-0.00400936952249369,-0.00090655447811139));
#1432=CARTESIAN_POINT('',(-0.0185926043619842,-0.00493820017758583,-0.000935820879702993));
#1433=CARTESIAN_POINT('',(-0.0193486856000053,-0.00497446476600469,-0.000651790151223069));
#1434=CARTESIAN_POINT('',(-0.0193019861570392,-0.0041974701493655,-0.000497154842342182));
#1435=CARTESIAN_POINT('',(-0.0184842891471494,-0.005,-0.00031283281547114));
#1436=CARTESIAN_POINT('',(-0.0192342891473437,-0.00500000000143853,-0.000213117392679424));
#1437=CARTESIAN_POINT('',(-0.0192342891544104,-0.00425000000340768,-0.000166192433219044));
#1438=CARTESIAN_POINT('',(-0.0184842891544104,-0.005,-2.02317657934664E-19));
#1439=CARTESIAN_POINT('',(-0.0192342891544104,-0.005,-1.09126245112974E-19));
#1440=CARTESIAN_POINT('',(-0.0192342891544104,-0.00425,-7.87785964227745E-20));
#1441=CARTESIAN_POINT('',(-0.0184842891544104,-0.00425,5.99818919685837E-19));
#1442=CARTESIAN_POINT('',(-0.0224842891544104,-0.00425,-1.52964366702536E-19));
#1443=CARTESIAN_POINT('',(-0.0184842891544103,-0.002,3.40599394596423E-18));
#1444=CARTESIAN_POINT('',(-0.0192342891544103,-0.002,1.67848097693145E-18));
#1445=CARTESIAN_POINT('',(-0.0192342891544103,-0.00275,2.95572870666803E-18));
#1446=CARTESIAN_POINT('',(-0.01848428914512,-0.002,-0.000198416872815404));
#1447=CARTESIAN_POINT('',(-0.0192342891535834,-0.0019999999999089,-9.61080913339089E-5));
#1448=CARTESIAN_POINT('',(-0.0192342891544103,-0.00275000000674657,-0.000170514500075739));
#1449=CARTESIAN_POINT('',(-0.0186010388079401,-0.00193683320756805,-0.000595745877057717));
#1450=CARTESIAN_POINT('',(-0.0192309726722544,-0.00200993503585645,-0.000292627042968834));
#1451=CARTESIAN_POINT('',(-0.019307257685173,-0.00266314565727339,-0.000511969113096476));
#1452=CARTESIAN_POINT('',(-0.0190486999754888,-0.00171668617648142,-0.00105981047411643));
#1453=CARTESIAN_POINT('',(-0.0194135961251806,-0.0019094734077092,-0.000745039329255413));
#1454=CARTESIAN_POINT('',(-0.0195870459183016,-0.00236044349350649,-0.000910774626193804));
#1455=CARTESIAN_POINT('',(-0.0196699327956614,-0.0014683089720662,-0.001368909373453));
#1456=CARTESIAN_POINT('',(-0.0198351669956881,-0.00169080530486801,-0.001132085325976));
#1457=CARTESIAN_POINT('',(-0.0199753164300166,-0.00201892483634553,-0.00117640649281117));
#1458=CARTESIAN_POINT('',(-0.0204859510508286,-0.00132499373999424,-0.00149725246183918));
#1459=CARTESIAN_POINT('',(-0.0204854974482511,-0.00154072478927203,-0.00130662329155438));
#1460=CARTESIAN_POINT('',(-0.0204853278396572,-0.00182186639262952,-0.00128670133439304));
#1461=CARTESIAN_POINT('',(-0.0212965408677313,-0.00146789975094574,-0.00136935288105979));
#1462=CARTESIAN_POINT('',(-0.0211319480212768,-0.00169048426653587,-0.00113263893469683));
#1463=CARTESIAN_POINT('',(-0.0209919464754699,-0.0020183621572461,-0.00117678763216076));
#1464=CARTESIAN_POINT('',(-0.0219222998643961,-0.00171757916765039,-0.00105886196044821));
#1465=CARTESIAN_POINT('',(-0.021556641800575,-0.00191021143455114,-0.000743585761912164));
#1466=CARTESIAN_POINT('',(-0.0213830458472301,-0.00236167135659903,-0.000909959497260182));
#1467=CARTESIAN_POINT('',(-0.022368051641141,-0.00193718899606993,-0.000593267000527133));
#1468=CARTESIAN_POINT('',(-0.021737418990695,-0.00200986341576046,-0.000291283712218194));
#1469=CARTESIAN_POINT('',(-0.0216616407120686,-0.0026636348655815,-0.000509838828578005));
#1470=CARTESIAN_POINT('',(-0.0224842891663134,-0.002,-0.000200067734241415));
#1471=CARTESIAN_POINT('',(-0.0217342891554432,-0.00199999999986748,-9.69077267447439E-5));
#1472=CARTESIAN_POINT('',(-0.0217342891544104,-0.00275000000864771,-0.000171933209113716));
#1473=CARTESIAN_POINT('',(-0.0224842891544104,-0.002,-1.36221729437119E-18));
#1474=CARTESIAN_POINT('',(-0.0217342891544104,-0.002,-6.31121342606028E-19));
#1475=CARTESIAN_POINT('',(-0.0217342891544104,-0.00275,-1.14195282799522E-18));
#1476=CARTESIAN_POINT('',(-0.0224842891544104,-0.00275,-1.27812000216171E-18));
#1477=CARTESIAN_POINT('',(-0.0184842891544104,-0.00275,2.60930867206191E-19));
#1478=CARTESIAN_POINT('',(-0.026,0.,0.));
#1479=CARTESIAN_POINT('',(-0.026,0.,0.));
#1480=CARTESIAN_POINT('',(0.,0.,0.));
#1481=CARTESIAN_POINT('',(0.,0.,0.));
#1482=CARTESIAN_POINT('',(0.,0.,0.));
#1483=MECHANICAL_DESIGN_GEOMETRIC_PRESENTATION_REPRESENTATION('',(#663),
#1484);
#1484=(
GEOMETRIC_REPRESENTATION_CONTEXT(3)
GLOBAL_UNCERTAINTY_ASSIGNED_CONTEXT((#1485))
GLOBAL_UNIT_ASSIGNED_CONTEXT((#1488,#1487,#1486))
REPRESENTATION_CONTEXT('Drum Large RH','TOP_LEVEL_ASSEMBLY_PART')
);
#1485=UNCERTAINTY_MEASURE_WITH_UNIT(LENGTH_MEASURE(2.E-5),#1488,
'DISTANCE_ACCURACY_VALUE','Maximum Tolerance applied to model');
#1486=(
NAMED_UNIT(*)
SI_UNIT($,.STERADIAN.)
SOLID_ANGLE_UNIT()
);
#1487=(
NAMED_UNIT(*)
PLANE_ANGLE_UNIT()
SI_UNIT($,.RADIAN.)
);
#1488=(
LENGTH_UNIT()
NAMED_UNIT(*)
SI_UNIT($,.METRE.)
);
#1489=PRODUCT_DEFINITION_SHAPE('','',#1490);
#1490=PRODUCT_DEFINITION('','',#1492,#1491);
#1491=PRODUCT_DEFINITION_CONTEXT('',#1498,'design');
#1492=PRODUCT_DEFINITION_FORMATION_WITH_SPECIFIED_SOURCE('','',#1494,
 .NOT_KNOWN.);
#1493=PRODUCT_RELATED_PRODUCT_CATEGORY('','',(#1494));
#1494=PRODUCT('Drum Large RH','Drum Large RH','Drum Large RH',(#1496));
#1495=PRODUCT_CATEGORY('','');
#1496=PRODUCT_CONTEXT('',#1498,'mechanical');
#1497=APPLICATION_PROTOCOL_DEFINITION('international standard',
'ap242_managed_model_based_3d_engineering',2020,#1498);
#1498=APPLICATION_CONTEXT('managed model based 3d engineering');
ENDSEC;
END-ISO-10303-21;
