ISO-10303-21;
HEADER;
/* Generated by software containing ST-Developer
 * from STEP Tools, Inc. (www.steptools.com) 
 */
/* OPTION: using custom renumber hook */

FILE_DESCRIPTION(
/* description */ ('STEP AP242 Edition 2',
'CAx-IF Rec.Pracs.---Representation and Presentation of Product Manufa
cturing Information (PMI)---4.0---2014-10-13',
'CAx-IF Rec.Pracs.---3D Tessellated Geometry---0.4---2014-09-14','2;1',
'CAx-IF Rec.Pracs.---User Defined Attributes---1.5---2016-08-15'),
/* implementation_level */ '2;1');

FILE_NAME(
/* name */ '695a8a402ecbc296e077bc0b',
/* time_stamp */ '2026-01-04T15:41:54Z',
/* author */ (''),
/* organization */ (''),
/* preprocessor_version */ 'ST-DEVELOPER v20',
/* originating_system */ 'ONSHAPE BY PTC INC, 1.208',
/* authorisation */ '  ');

FILE_SCHEMA (('AP242_MANAGED_MODEL_BASED_3D_ENGINEERING_MIM_LF { 1 0 10303 442 3 1 4 }'));
ENDSEC;

DATA;
#10=SHAPE_REPRESENTATION_RELATIONSHIP('','',#127,#11);
#11=ADVANCED_BREP_SHAPE_REPRESENTATION('',(#125),#219);
#12=PLANE('',#140);
#13=PLANE('',#141);
#14=PLANE('',#143);
#15=LINE('',#191,#19);
#16=LINE('',#195,#20);
#17=LINE('',#199,#21);
#18=LINE('',#203,#22);
#19=VECTOR('',#152,1.);
#20=VECTOR('',#155,1.);
#21=VECTOR('',#158,1.);
#22=VECTOR('',#161,1.);
#23=ORIENTED_EDGE('',*,*,#51,.T.);
#24=ORIENTED_EDGE('',*,*,#52,.F.);
#25=ORIENTED_EDGE('',*,*,#53,.F.);
#26=ORIENTED_EDGE('',*,*,#54,.T.);
#27=ORIENTED_EDGE('',*,*,#55,.T.);
#28=ORIENTED_EDGE('',*,*,#56,.F.);
#29=ORIENTED_EDGE('',*,*,#57,.F.);
#30=ORIENTED_EDGE('',*,*,#58,.T.);
#31=ORIENTED_EDGE('',*,*,#59,.T.);
#32=ORIENTED_EDGE('',*,*,#58,.F.);
#33=ORIENTED_EDGE('',*,*,#60,.F.);
#34=ORIENTED_EDGE('',*,*,#56,.T.);
#35=ORIENTED_EDGE('',*,*,#61,.T.);
#36=ORIENTED_EDGE('',*,*,#62,.F.);
#37=ORIENTED_EDGE('',*,*,#57,.T.);
#38=ORIENTED_EDGE('',*,*,#60,.T.);
#39=ORIENTED_EDGE('',*,*,#61,.F.);
#40=ORIENTED_EDGE('',*,*,#63,.F.);
#41=ORIENTED_EDGE('',*,*,#51,.F.);
#42=ORIENTED_EDGE('',*,*,#59,.F.);
#43=ORIENTED_EDGE('',*,*,#55,.F.);
#44=ORIENTED_EDGE('',*,*,#62,.T.);
#45=ORIENTED_EDGE('',*,*,#53,.T.);
#46=ORIENTED_EDGE('',*,*,#64,.F.);
#47=ORIENTED_EDGE('',*,*,#54,.F.);
#48=ORIENTED_EDGE('',*,*,#64,.T.);
#49=ORIENTED_EDGE('',*,*,#52,.T.);
#50=ORIENTED_EDGE('',*,*,#63,.T.);
#51=EDGE_CURVE('',#65,#66,#75,.T.);
#52=EDGE_CURVE('',#67,#66,#15,.T.);
#53=EDGE_CURVE('',#68,#67,#76,.F.);
#54=EDGE_CURVE('',#68,#69,#16,.T.);
#55=EDGE_CURVE('',#69,#70,#77,.T.);
#56=EDGE_CURVE('',#71,#70,#17,.T.);
#57=EDGE_CURVE('',#72,#71,#78,.T.);
#58=EDGE_CURVE('',#72,#65,#18,.T.);
#59=EDGE_CURVE('',#70,#65,#79,.T.);
#60=EDGE_CURVE('',#71,#72,#80,.T.);
#61=EDGE_CURVE('',#73,#73,#81,.T.);
#62=EDGE_CURVE('',#74,#74,#82,.T.);
#63=EDGE_CURVE('',#66,#69,#83,.T.);
#64=EDGE_CURVE('',#68,#67,#84,.T.);
#65=VERTEX_POINT('',#189);
#66=VERTEX_POINT('',#190);
#67=VERTEX_POINT('',#192);
#68=VERTEX_POINT('',#194);
#69=VERTEX_POINT('',#196);
#70=VERTEX_POINT('',#198);
#71=VERTEX_POINT('',#200);
#72=VERTEX_POINT('',#202);
#73=VERTEX_POINT('',#209);
#74=VERTEX_POINT('',#211);
#75=CIRCLE('',#130,0.005);
#76=CIRCLE('',#131,0.005);
#77=CIRCLE('',#132,0.005);
#78=CIRCLE('',#133,0.005);
#79=CIRCLE('',#135,0.00375);
#80=CIRCLE('',#136,0.00375);
#81=CIRCLE('',#138,0.0015);
#82=CIRCLE('',#139,0.0015);
#83=CIRCLE('',#142,0.03);
#84=CIRCLE('',#144,0.03);
#85=EDGE_LOOP('',(#23,#24,#25,#26,#27,#28,#29,#30));
#86=EDGE_LOOP('',(#31,#32,#33,#34));
#87=EDGE_LOOP('',(#35));
#88=EDGE_LOOP('',(#36));
#89=EDGE_LOOP('',(#37,#38));
#90=EDGE_LOOP('',(#39));
#91=EDGE_LOOP('',(#40,#41,#42,#43));
#92=EDGE_LOOP('',(#44));
#93=EDGE_LOOP('',(#45,#46));
#94=EDGE_LOOP('',(#47,#48,#49,#50));
#95=FACE_BOUND('',#85,.T.);
#96=FACE_BOUND('',#86,.T.);
#97=FACE_BOUND('',#87,.T.);
#98=FACE_BOUND('',#88,.T.);
#99=FACE_BOUND('',#89,.T.);
#100=FACE_BOUND('',#90,.T.);
#101=FACE_BOUND('',#91,.T.);
#102=FACE_BOUND('',#92,.T.);
#103=FACE_BOUND('',#93,.T.);
#104=FACE_BOUND('',#94,.T.);
#105=CYLINDRICAL_SURFACE('',#129,0.005);
#106=CYLINDRICAL_SURFACE('',#134,0.00375);
#107=CYLINDRICAL_SURFACE('',#137,0.0015);
#108=CYLINDRICAL_SURFACE('',#145,0.03);
#109=ADVANCED_FACE('',(#95),#105,.T.);
#110=ADVANCED_FACE('',(#96),#106,.T.);
#111=ADVANCED_FACE('',(#97,#98),#107,.F.);
#112=ADVANCED_FACE('',(#99,#100),#12,.T.);
#113=ADVANCED_FACE('',(#101,#102),#13,.F.);
#114=ADVANCED_FACE('',(#103),#14,.F.);
#115=ADVANCED_FACE('',(#104),#108,.T.);
#116=CLOSED_SHELL('',(#109,#110,#111,#112,#113,#114,#115));
#117=STYLED_ITEM('',(#118),#125);
#118=PRESENTATION_STYLE_ASSIGNMENT((#119));
#119=SURFACE_STYLE_USAGE(.BOTH.,#120);
#120=SURFACE_SIDE_STYLE('',(#121));
#121=SURFACE_STYLE_FILL_AREA(#122);
#122=FILL_AREA_STYLE('',(#123));
#123=FILL_AREA_STYLE_COLOUR('',#124);
#124=COLOUR_RGB('',0.647058823529412,0.647058823529412,0.647058823529412);
#125=MANIFOLD_SOLID_BREP('Arm Interface Top',#116);
#126=SHAPE_DEFINITION_REPRESENTATION(#224,#127);
#127=SHAPE_REPRESENTATION('Arm Interface Top',(#128),#219);
#128=AXIS2_PLACEMENT_3D('',#186,#146,#147);
#129=AXIS2_PLACEMENT_3D('',#187,#148,#149);
#130=AXIS2_PLACEMENT_3D('',#188,#150,#151);
#131=AXIS2_PLACEMENT_3D('',#193,#153,#154);
#132=AXIS2_PLACEMENT_3D('',#197,#156,#157);
#133=AXIS2_PLACEMENT_3D('',#201,#159,#160);
#134=AXIS2_PLACEMENT_3D('',#204,#162,#163);
#135=AXIS2_PLACEMENT_3D('',#205,#164,#165);
#136=AXIS2_PLACEMENT_3D('',#206,#166,#167);
#137=AXIS2_PLACEMENT_3D('',#207,#168,#169);
#138=AXIS2_PLACEMENT_3D('',#208,#170,#171);
#139=AXIS2_PLACEMENT_3D('',#210,#172,#173);
#140=AXIS2_PLACEMENT_3D('',#212,#174,#175);
#141=AXIS2_PLACEMENT_3D('',#213,#176,#177);
#142=AXIS2_PLACEMENT_3D('',#214,#178,#179);
#143=AXIS2_PLACEMENT_3D('',#215,#180,#181);
#144=AXIS2_PLACEMENT_3D('',#216,#182,#183);
#145=AXIS2_PLACEMENT_3D('',#217,#184,#185);
#146=DIRECTION('',(0.,0.,1.));
#147=DIRECTION('',(1.,0.,0.));
#148=DIRECTION('',(0.,0.,-1.));
#149=DIRECTION('',(-1.,0.,0.));
#150=DIRECTION('',(0.,0.,1.));
#151=DIRECTION('',(1.,0.,0.));
#152=DIRECTION('',(0.,0.,1.));
#153=DIRECTION('',(0.,0.,1.));
#154=DIRECTION('',(1.,0.,0.));
#155=DIRECTION('',(0.,0.,1.));
#156=DIRECTION('',(0.,0.,1.));
#157=DIRECTION('',(1.,0.,0.));
#158=DIRECTION('',(0.,0.,-1.));
#159=DIRECTION('',(0.,0.,1.));
#160=DIRECTION('',(1.,0.,0.));
#161=DIRECTION('',(0.,0.,-1.));
#162=DIRECTION('',(0.,0.,-1.));
#163=DIRECTION('',(-1.,0.,0.));
#164=DIRECTION('',(0.,0.,1.));
#165=DIRECTION('',(1.,0.,0.));
#166=DIRECTION('',(0.,0.,1.));
#167=DIRECTION('',(1.,0.,0.));
#168=DIRECTION('',(0.,0.,-1.));
#169=DIRECTION('',(-1.,0.,0.));
#170=DIRECTION('',(0.,0.,1.));
#171=DIRECTION('',(1.,0.,0.));
#172=DIRECTION('',(0.,0.,1.));
#173=DIRECTION('',(1.,0.,0.));
#174=DIRECTION('',(0.,0.,1.));
#175=DIRECTION('',(1.,0.,0.));
#176=DIRECTION('',(0.,0.,1.));
#177=DIRECTION('',(1.,0.,0.));
#178=DIRECTION('',(0.,0.,-1.));
#179=DIRECTION('',(-1.,0.,0.));
#180=DIRECTION('',(0.,0.,1.));
#181=DIRECTION('',(1.,0.,0.));
#182=DIRECTION('',(0.,0.,1.));
#183=DIRECTION('',(1.,0.,0.));
#184=DIRECTION('',(0.,0.,1.));
#185=DIRECTION('',(1.,0.,0.));
#186=CARTESIAN_POINT('',(0.,0.,0.));
#187=CARTESIAN_POINT('',(0.03,-1.53080849893419E-19,0.01));
#188=CARTESIAN_POINT('',(0.03,-1.53080849893419E-19,0.007));
#189=CARTESIAN_POINT('',(0.0333333333333333,0.00372677996249965,0.007));
#190=CARTESIAN_POINT('',(0.0295833333333334,0.00498260864295892,0.007));
#191=CARTESIAN_POINT('',(0.0295833333333334,0.00498260864295892,0.004998));
#192=CARTESIAN_POINT('',(0.0295833333333334,0.00498260864295892,0.005));
#193=CARTESIAN_POINT('',(0.03,-1.53080849893419E-19,0.005));
#194=CARTESIAN_POINT('',(0.0295833333333334,-0.00498260864295892,0.005));
#195=CARTESIAN_POINT('',(0.0295833333333334,-0.00498260864295892,0.004998));
#196=CARTESIAN_POINT('',(0.0295833333333334,-0.00498260864295892,0.007));
#197=CARTESIAN_POINT('',(0.03,-1.53080849893419E-19,0.007));
#198=CARTESIAN_POINT('',(0.0333333333333333,-0.00372677996249965,0.007));
#199=CARTESIAN_POINT('',(0.0333333333333333,-0.00372677996249965,0.01));
#200=CARTESIAN_POINT('',(0.0333333333333333,-0.00372677996249965,0.01));
#201=CARTESIAN_POINT('',(0.03,-1.53080849893419E-19,0.01));
#202=CARTESIAN_POINT('',(0.0333333333333333,0.00372677996249965,0.01));
#203=CARTESIAN_POINT('',(0.0333333333333333,0.00372677996249965,0.01));
#204=CARTESIAN_POINT('',(0.03375,-3.93023287525996E-19,0.01));
#205=CARTESIAN_POINT('',(0.03375,-3.93023287525996E-19,0.007));
#206=CARTESIAN_POINT('',(0.03375,-3.93023287525996E-19,0.01));
#207=CARTESIAN_POINT('',(0.03375,2.956283527872E-19,0.01));
#208=CARTESIAN_POINT('',(0.03375,2.956283527872E-19,0.01));
#209=CARTESIAN_POINT('',(0.03525,2.956283527872E-19,0.01));
#210=CARTESIAN_POINT('',(0.03375,2.956283527872E-19,0.007));
#211=CARTESIAN_POINT('',(0.03525,2.956283527872E-19,0.007));
#212=CARTESIAN_POINT('',(0.03125,-1.7347234759768E-18,0.01));
#213=CARTESIAN_POINT('',(0.03125,-1.7347234759768E-18,0.007));
#214=CARTESIAN_POINT('',(4.5102810375397E-17,-5.20417042793042E-18,0.007));
#215=CARTESIAN_POINT('',(0.,0.,0.005));
#216=CARTESIAN_POINT('',(4.5102810375397E-17,-5.20417042793042E-18,0.005));
#217=CARTESIAN_POINT('',(4.5102810375397E-17,-5.20417042793042E-18,0.004998));
#218=MECHANICAL_DESIGN_GEOMETRIC_PRESENTATION_REPRESENTATION('',(#117),
#219);
#219=(
GEOMETRIC_REPRESENTATION_CONTEXT(3)
GLOBAL_UNCERTAINTY_ASSIGNED_CONTEXT((#220))
GLOBAL_UNIT_ASSIGNED_CONTEXT((#223,#222,#221))
REPRESENTATION_CONTEXT('Arm Interface Top','TOP_LEVEL_ASSEMBLY_PART')
);
#220=UNCERTAINTY_MEASURE_WITH_UNIT(LENGTH_MEASURE(1.E-8),#223,
'DISTANCE_ACCURACY_VALUE','Maximum Tolerance applied to model');
#221=(
NAMED_UNIT(*)
SI_UNIT($,.STERADIAN.)
SOLID_ANGLE_UNIT()
);
#222=(
NAMED_UNIT(*)
PLANE_ANGLE_UNIT()
SI_UNIT($,.RADIAN.)
);
#223=(
LENGTH_UNIT()
NAMED_UNIT(*)
SI_UNIT($,.METRE.)
);
#224=PRODUCT_DEFINITION_SHAPE('','',#225);
#225=PRODUCT_DEFINITION('','',#227,#226);
#226=PRODUCT_DEFINITION_CONTEXT('',#233,'design');
#227=PRODUCT_DEFINITION_FORMATION_WITH_SPECIFIED_SOURCE('','',#229,
 .NOT_KNOWN.);
#228=PRODUCT_RELATED_PRODUCT_CATEGORY('','',(#229));
#229=PRODUCT('Arm Interface Top','Arm Interface Top',
'Arm Interface Top',(#231));
#230=PRODUCT_CATEGORY('','');
#231=PRODUCT_CONTEXT('',#233,'mechanical');
#232=APPLICATION_PROTOCOL_DEFINITION('international standard',
'ap242_managed_model_based_3d_engineering',2020,#233);
#233=APPLICATION_CONTEXT('managed model based 3d engineering');
ENDSEC;
END-ISO-10303-21;
